{"glyphs":{"0":{"ha":1042,"x_min":18,"x_max":1024,"o":"m 688 463 q 637 576 688 528 q 521 625 587 625 q 404 576 455 625 q 353 463 353 528 q 404 349 353 398 q 521 301 456 301 q 637 349 585 301 q 688 463 688 398 m 724 463 q 662 326 724 385 q 521 267 601 267 q 379 325 441 267 q 318 463 318 382 q 379 601 318 542 q 521 660 441 660 q 662 601 601 660 q 724 463 724 542 m 989 463 q 846 777 989 648 q 521 903 707 903 q 195 777 334 903 q 52 463 52 648 q 195 149 52 278 q 521 23 334 23 q 846 149 707 23 q 989 463 989 278 m 1024 463 q 870 125 1024 265 q 521 -10 721 -10 q 172 125 321 -10 q 18 463 18 265 q 172 801 18 661 q 521 937 321 937 q 870 801 720 937 q 1024 463 1024 661 z "},"1":{"ha":498,"x_min":12,"x_max":480,"o":"m 446 903 l 160 903 l 65 683 l 168 683 l 168 23 l 446 23 l 446 903 m 133 -10 l 133 648 l 12 648 l 136 937 l 480 937 l 480 -10 l 133 -10 z "},"2":{"ha":1042,"x_min":18,"x_max":1024,"o":"m 989 243 l 318 243 l 318 283 q 376 365 318 365 l 724 365 q 909 446 828 365 q 989 633 989 529 q 909 821 989 738 q 724 903 829 903 l 110 903 l 110 683 l 665 683 q 688 677 677 683 q 707 663 699 672 q 719 643 715 654 q 724 619 724 631 q 719 597 724 608 q 706 579 714 587 q 687 566 698 571 q 665 562 677 562 l 318 562 q 132 479 212 562 q 52 293 52 399 l 52 23 l 989 23 l 989 243 m 18 -10 l 18 293 q 109 504 18 411 q 318 596 199 596 l 665 596 q 688 619 688 596 q 665 648 688 648 l 75 648 l 75 937 l 724 937 q 933 844 842 937 q 1024 633 1024 751 q 933 422 1024 515 q 724 330 843 330 l 376 330 q 353 287 353 330 l 353 278 l 1024 278 l 1024 -10 l 18 -10 z "},"3":{"ha":984,"x_min":18,"x_max":966,"o":"m 932 288 q 868 463 932 381 q 932 633 932 545 q 853 823 932 742 q 665 903 775 903 l 52 903 l 52 683 l 608 683 q 630 677 620 683 q 649 663 641 672 q 661 643 656 654 q 665 619 665 631 q 661 597 665 608 q 648 579 656 587 q 630 566 640 571 q 608 562 619 562 l 283 562 l 283 365 l 608 365 q 630 360 619 365 q 648 346 640 355 q 661 327 656 338 q 665 303 665 315 q 661 281 665 292 q 648 261 656 270 q 630 248 640 253 q 608 243 619 243 l 52 243 l 52 23 l 665 23 q 852 102 773 23 q 932 288 932 182 m 966 288 q 877 78 966 166 q 665 -10 789 -10 l 18 -10 l 18 278 l 608 278 q 631 303 631 278 q 608 330 631 330 l 249 330 l 249 596 l 608 596 q 631 619 631 596 q 608 648 631 648 l 18 648 l 18 937 l 665 937 q 878 848 789 937 q 966 633 966 757 q 912 463 966 542 q 966 288 966 385 z "},"4":{"ha":1042,"x_min":15,"x_max":1024,"o":"m 989 440 l 932 440 l 932 903 l 654 903 l 654 440 l 389 440 l 452 787 l 164 787 l 57 197 l 654 197 l 654 23 l 932 23 l 932 197 l 989 197 l 989 440 m 966 162 l 966 -10 l 619 -10 l 619 162 l 15 162 l 134 822 l 494 822 l 431 475 l 619 475 l 619 937 l 966 937 l 966 475 l 1024 475 l 1024 162 l 966 162 z "},"5":{"ha":1042,"x_min":18,"x_max":1024,"o":"m 989 293 q 909 479 989 397 q 724 562 829 562 l 318 562 l 318 683 l 932 683 l 932 903 l 52 903 l 52 365 l 665 365 q 687 360 677 365 q 706 347 698 355 q 719 329 714 339 q 724 307 724 318 q 719 283 724 294 q 707 262 715 271 q 688 248 699 254 q 665 243 677 243 l 52 243 l 52 23 l 724 23 q 909 105 829 23 q 989 293 989 188 m 1024 293 q 933 81 1024 174 q 724 -10 842 -10 l 18 -10 l 18 278 l 665 278 q 688 307 688 278 q 665 330 688 330 l 18 330 l 18 937 l 966 937 l 966 648 l 353 648 l 353 596 l 724 596 q 933 504 843 596 q 1024 293 1024 411 z "},"6":{"ha":1042,"x_min":18,"x_max":1024,"o":"m 688 307 q 665 330 688 330 l 376 330 q 353 307 353 330 q 376 278 353 278 l 665 278 q 688 307 688 278 m 724 307 q 719 283 724 294 q 707 262 715 271 q 688 248 699 254 q 665 243 677 243 l 376 243 q 354 248 364 243 q 335 262 343 254 q 322 283 327 271 q 318 307 318 294 q 323 329 318 318 q 336 347 328 339 q 354 360 344 355 q 376 365 365 365 l 665 365 q 687 360 677 365 q 706 347 698 355 q 719 329 714 339 q 724 307 724 318 m 989 293 q 909 479 989 397 q 724 562 829 562 l 376 562 q 354 567 364 562 q 335 581 343 572 q 322 602 327 590 q 318 625 318 613 q 323 647 318 637 q 336 666 328 658 q 354 678 344 673 q 376 683 365 683 l 932 683 l 932 903 l 318 903 q 132 822 213 903 q 52 637 52 742 l 52 292 q 132 104 52 186 q 318 23 212 23 l 724 23 q 909 104 828 23 q 989 293 989 187 m 1024 293 q 933 81 1024 174 q 724 -10 842 -10 l 318 -10 q 109 81 199 -10 q 18 292 18 174 l 18 637 q 109 846 18 755 q 318 937 199 937 l 966 937 l 966 648 l 376 648 q 353 625 353 648 q 376 596 353 596 l 724 596 q 933 504 843 596 q 1024 293 1024 411 z "},"7":{"ha":1042,"x_min":7,"x_max":1035,"o":"m 52 903 l 52 683 l 509 683 l 72 23 l 387 23 l 970 903 l 52 903 m 405 -10 l 7 -10 l 444 648 l 18 648 l 18 937 l 1035 937 l 405 -10 z "},"8":{"ha":1042,"x_min":18,"x_max":1024,"o":"m 688 301 q 665 330 688 330 l 376 330 q 353 301 353 330 q 376 278 353 278 l 665 278 q 688 301 688 278 m 665 619 q 642 648 665 648 l 399 648 q 376 619 376 648 q 399 596 376 596 l 642 596 q 665 619 665 596 m 724 301 q 719 279 724 290 q 706 260 714 269 q 687 248 698 252 q 665 243 677 243 l 376 243 q 354 248 365 243 q 336 260 344 252 q 323 279 328 269 q 318 301 318 290 q 322 325 318 313 q 335 345 327 336 q 354 359 343 354 q 376 365 364 365 l 665 365 q 688 359 677 365 q 707 345 699 354 q 719 325 715 336 q 724 301 724 313 m 701 619 q 696 597 701 608 q 683 579 691 587 q 664 566 675 571 q 642 562 654 562 l 399 562 q 377 566 388 562 q 359 579 367 571 q 346 597 351 587 q 341 619 341 608 q 346 643 341 631 q 358 663 350 654 q 377 677 366 672 q 399 683 387 683 l 642 683 q 665 677 654 683 q 684 663 675 672 q 696 643 692 654 q 701 619 701 631 m 989 269 q 875 478 989 389 q 966 665 966 564 q 882 836 966 763 q 701 903 802 903 l 341 903 q 161 837 241 903 q 75 668 75 766 q 164 478 75 564 q 52 270 52 389 q 134 96 52 169 q 318 23 217 23 l 724 23 q 907 95 825 23 q 989 269 989 167 m 1024 269 q 931 72 1024 155 q 724 -10 839 -10 l 318 -10 q 111 71 202 -10 q 18 270 18 154 q 113 480 18 393 q 41 668 41 563 q 136 861 41 780 q 341 937 227 937 l 701 937 q 906 860 815 937 q 1001 665 1001 779 q 927 480 1001 562 q 1024 269 1024 393 z "},"9":{"ha":1042,"x_min":18,"x_max":1024,"o":"m 688 619 q 665 648 688 648 l 376 648 q 353 619 353 648 q 376 596 353 596 l 665 596 q 688 619 688 596 m 724 619 q 719 597 724 608 q 706 579 714 587 q 687 566 698 571 q 665 562 677 562 l 376 562 q 354 566 365 562 q 336 579 344 571 q 323 597 328 587 q 318 619 318 608 q 322 643 318 631 q 335 663 327 654 q 354 677 343 672 q 376 683 364 683 l 665 683 q 688 677 677 683 q 707 663 699 672 q 719 643 715 654 q 724 619 724 631 m 989 634 q 909 821 989 739 q 724 903 828 903 l 318 903 q 132 821 212 903 q 52 633 52 741 q 132 446 52 526 q 318 365 212 365 l 665 365 q 688 359 677 365 q 707 345 699 354 q 719 325 715 336 q 724 301 724 313 q 719 279 724 290 q 706 260 714 269 q 687 248 698 252 q 665 243 677 243 l 110 243 l 110 23 l 724 23 q 909 103 829 23 q 989 290 989 184 l 989 634 m 1024 290 q 933 80 1024 171 q 724 -10 843 -10 l 75 -10 l 75 278 l 665 278 q 688 301 688 278 q 665 330 688 330 l 318 330 q 109 422 199 330 q 18 633 18 515 q 109 845 18 752 q 318 937 199 937 l 724 937 q 933 845 843 937 q 1024 634 1024 752 l 1024 290 z "}," ":{"ha":521,"x_min":0,"x_max":0,"o":""},"!":{"ha":290,"x_min":16,"x_max":273,"o":"m 237 116 q 210 180 237 153 q 144 208 182 208 q 80 180 108 208 q 52 116 52 153 q 80 51 52 79 q 144 23 108 23 q 210 51 182 23 q 237 116 237 79 m 54 903 l 74 313 l 215 313 l 236 903 l 54 903 m 272 116 q 233 27 272 64 q 144 -10 196 -10 q 56 27 93 -10 q 18 116 18 65 q 56 205 18 167 q 144 243 94 243 q 233 205 195 243 q 272 116 272 167 m 248 278 l 41 278 l 16 937 l 273 937 l 248 278 z "},"\"":{"ha":578,"x_min":18,"x_max":562,"o":"m 237 810 q 210 875 237 847 q 144 903 182 903 q 80 875 108 903 q 52 810 52 847 q 176 718 52 718 l 147 621 q 237 810 237 696 m 527 810 q 499 875 527 847 q 434 903 471 903 q 369 875 397 903 q 341 810 341 847 q 465 718 341 718 l 436 621 q 527 810 527 697 m 272 810 q 222 654 272 730 q 93 562 168 572 l 130 685 q 50 728 82 693 q 18 810 18 764 q 56 899 18 861 q 144 937 94 937 q 233 899 195 937 q 272 810 272 861 m 562 810 q 511 654 562 730 q 382 562 457 571 l 419 685 q 339 728 372 693 q 307 810 307 763 q 345 899 307 861 q 434 937 385 937 q 523 899 485 937 q 562 810 562 861 z "},"#":{"ha":925,"x_min":15,"x_max":909,"o":"m 413 596 l 391 475 l 511 475 l 534 596 l 413 596 m 542 440 l 349 440 l 383 631 l 575 631 l 542 440 m 724 758 l 750 903 l 623 903 l 596 758 l 405 758 l 432 903 l 304 903 l 278 758 l 134 758 l 113 631 l 257 631 l 223 440 l 79 440 l 57 313 l 201 313 l 175 168 l 302 168 l 329 313 l 519 313 l 493 168 l 621 168 l 647 313 l 791 313 l 812 440 l 668 440 l 701 631 l 846 631 l 868 758 l 724 758 m 876 596 l 732 596 l 709 475 l 854 475 l 821 278 l 675 278 l 648 133 l 452 133 l 478 278 l 357 278 l 330 133 l 133 133 l 160 278 l 15 278 l 49 475 l 193 475 l 215 596 l 71 596 l 104 793 l 250 793 l 277 937 l 473 937 l 447 793 l 568 793 l 595 937 l 791 937 l 765 793 l 909 793 l 876 596 z "},"$":{"ha":984,"x_min":18,"x_max":966,"o":"m 932 903 l 585 903 l 585 1019 l 399 1019 l 399 901 q 237 812 304 881 q 168 645 168 741 q 233 475 168 549 q 281 432 250 456 q 354 380 311 409 q 419 317 419 338 q 406 282 419 298 q 373 267 393 267 l 52 267 l 52 23 l 399 23 l 399 -92 l 585 -92 l 585 24 q 744 105 679 44 q 816 264 816 173 q 744 434 816 358 q 612 539 707 475 q 541 610 541 587 q 554 645 541 629 q 587 660 567 660 l 932 660 l 932 903 m 587 625 q 575 610 574 625 q 742 484 632 570 q 850 264 850 393 q 780 93 850 170 q 619 -2 714 21 l 619 -126 l 365 -126 l 365 -10 l 18 -10 l 18 301 l 373 301 q 385 317 385 301 q 262 403 322 360 q 170 500 201 450 q 133 645 133 559 q 200 823 133 743 q 365 929 266 903 l 365 1053 l 619 1053 l 619 937 l 966 937 l 966 625 l 587 625 z "},"%":{"ha":1171,"x_min":18,"x_max":1154,"o":"m 336 694 q 313 747 336 724 q 260 770 290 770 q 208 747 231 770 q 185 694 185 724 q 208 642 185 665 q 260 619 231 619 q 313 642 290 619 q 336 694 336 665 m 986 231 q 964 284 986 262 q 911 307 941 307 q 858 284 881 307 q 836 231 836 262 q 858 178 836 201 q 911 156 881 156 q 964 178 941 156 q 986 231 986 201 m 370 694 q 336 618 370 652 q 260 585 303 585 q 184 618 217 585 q 151 694 151 651 q 184 770 151 737 q 260 804 218 804 q 336 770 302 804 q 370 694 370 736 m 1021 231 q 987 155 1021 189 q 911 121 954 121 q 834 155 867 121 q 801 231 801 188 q 834 307 801 274 q 911 341 868 341 q 987 307 953 341 q 1021 231 1021 273 m 469 694 q 406 840 469 777 q 260 903 342 903 q 115 840 178 903 q 52 694 52 777 q 115 549 52 612 q 260 486 178 486 q 406 549 342 486 q 469 694 469 612 m 649 909 l 347 81 l 522 18 l 824 845 l 649 909 m 1119 231 q 1056 377 1119 314 q 911 440 993 440 q 766 377 829 440 q 703 231 703 314 q 766 86 703 149 q 911 23 829 23 q 1056 86 993 23 q 1119 231 1119 149 m 503 694 q 430 525 503 598 q 260 452 357 452 q 91 525 164 452 q 18 694 18 598 q 91 864 18 791 q 260 937 164 937 q 430 864 357 937 q 503 694 503 791 m 543 -26 l 303 60 l 629 953 l 868 866 l 543 -26 m 1154 231 q 1080 62 1154 136 q 911 -10 1006 -10 q 741 62 816 -10 q 668 231 668 136 q 741 401 668 328 q 911 475 814 475 q 1080 401 1007 475 q 1154 231 1154 328 z "},"&":{"ha":984,"x_min":18,"x_max":966,"o":"m 932 416 l 684 416 l 684 243 l 376 243 q 354 248 365 243 q 336 261 344 253 q 323 281 328 270 q 318 303 318 292 q 323 327 318 315 q 336 346 328 338 q 354 360 344 355 q 376 365 365 365 l 527 365 l 527 562 l 376 562 q 354 566 365 562 q 336 579 344 571 q 323 597 328 587 q 318 619 318 608 q 322 643 318 631 q 335 663 327 654 q 354 677 343 672 q 376 683 364 683 l 932 683 l 932 903 l 318 903 q 130 823 208 903 q 52 633 52 745 q 116 463 52 545 q 52 288 52 381 q 132 102 52 182 q 318 23 211 23 l 932 23 l 932 416 m 318 -10 q 107 78 195 -10 q 18 288 18 166 q 72 463 18 385 q 18 633 18 542 q 106 848 18 760 q 318 937 194 937 l 966 937 l 966 648 l 376 648 q 353 619 353 648 q 376 596 353 596 l 562 596 l 562 330 l 376 330 q 353 303 353 330 q 376 278 353 278 l 649 278 l 649 452 l 966 452 l 966 -10 l 318 -10 z "},"'":{"ha":290,"x_min":18,"x_max":272,"o":"m 237 810 q 210 875 237 847 q 144 903 182 903 q 80 875 108 903 q 52 810 52 847 q 176 718 52 718 l 147 621 q 237 810 237 696 m 272 810 q 222 654 272 730 q 93 562 168 572 l 130 685 q 50 728 82 693 q 18 810 18 764 q 56 899 18 861 q 144 937 94 937 q 233 899 195 937 q 272 810 272 861 z "},"(":{"ha":405,"x_min":18,"x_max":393,"o":"m 341 -92 q 237 463 237 172 q 341 1019 237 755 l 215 1019 q 52 463 52 774 q 215 -92 52 151 l 341 -92 m 197 -126 q 18 463 18 133 q 197 1053 18 791 l 393 1053 q 272 463 272 762 q 393 -126 272 163 l 197 -126 z "},")":{"ha":405,"x_min":12,"x_max":388,"o":"m 353 463 q 190 1019 353 776 l 64 1019 q 168 463 168 755 q 64 -92 168 172 l 190 -92 q 353 463 353 149 m 388 463 q 208 -126 388 139 l 12 -126 q 133 463 133 163 q 12 1053 133 762 l 208 1053 q 388 463 388 792 z "},"*":{"ha":528,"x_min":14,"x_max":514,"o":"m 357 671 l 467 735 l 421 814 l 310 751 l 310 880 l 218 880 l 218 751 l 106 814 l 60 735 l 172 671 l 60 608 l 106 528 l 218 591 l 218 463 l 310 463 l 310 591 l 421 528 l 467 608 l 357 671 m 433 479 l 345 531 l 345 428 l 183 428 l 183 531 l 95 479 l 14 619 l 102 671 l 14 724 l 95 863 l 183 811 l 183 914 l 345 914 l 345 811 l 433 863 l 514 724 l 426 671 l 514 619 l 433 479 z "},"+":{"ha":521,"x_min":18,"x_max":503,"o":"m 469 527 l 324 527 l 324 671 l 197 671 l 197 527 l 52 527 l 52 399 l 197 399 l 197 254 l 324 254 l 324 399 l 469 399 l 469 527 m 359 365 l 359 220 l 162 220 l 162 365 l 18 365 l 18 562 l 162 562 l 162 706 l 359 706 l 359 562 l 503 562 l 503 365 l 359 365 z "},",":{"ha":290,"x_min":18,"x_max":272,"o":"m 237 116 q 210 180 237 153 q 144 208 182 208 q 80 180 108 208 q 52 116 52 153 q 176 23 52 23 l 147 -73 q 237 116 237 2 m 272 116 q 222 -39 272 35 q 93 -131 168 -121 l 130 -8 q 50 34 83 0 q 18 116 18 70 q 56 205 18 167 q 144 243 94 243 q 233 205 195 243 q 272 116 272 167 z "},"-":{"ha":521,"x_min":18,"x_max":503,"o":"m 469 527 l 52 527 l 52 399 l 469 399 l 469 527 m 18 365 l 18 562 l 503 562 l 503 365 l 18 365 z "},".":{"ha":290,"x_min":18,"x_max":272,"o":"m 237 116 q 210 180 237 153 q 144 208 182 208 q 80 180 108 208 q 52 116 52 153 q 80 51 52 79 q 144 23 108 23 q 210 51 182 23 q 237 116 237 79 m 272 116 q 233 27 272 64 q 144 -10 196 -10 q 56 27 93 -10 q 18 116 18 65 q 56 205 18 167 q 144 243 94 243 q 233 205 195 243 q 272 116 272 167 z "},"/":{"ha":614,"x_min":-14,"x_max":629,"o":"m 410 1017 l 29 -26 l 203 -90 l 585 954 l 410 1017 m 224 -134 l -14 -47 l 389 1061 l 629 975 l 224 -134 z "},":":{"ha":290,"x_min":18,"x_max":272,"o":"m 237 116 q 210 180 237 153 q 144 208 182 208 q 80 180 108 208 q 52 116 52 153 q 80 51 52 79 q 144 23 108 23 q 210 51 182 23 q 237 116 237 79 m 237 578 q 210 644 237 616 q 144 671 182 671 q 80 644 108 671 q 52 578 52 616 q 80 514 52 542 q 144 486 108 486 q 210 514 182 486 q 237 578 237 542 m 272 116 q 233 27 272 64 q 144 -10 196 -10 q 56 27 93 -10 q 18 116 18 65 q 56 205 18 167 q 144 243 94 243 q 233 205 195 243 q 272 116 272 167 m 272 578 q 233 490 272 527 q 144 452 195 452 q 56 490 94 452 q 18 578 18 528 q 56 667 18 629 q 144 706 93 706 q 233 667 195 706 q 272 578 272 629 z "},";":{"ha":290,"x_min":18,"x_max":272,"o":"m 237 116 q 210 180 237 153 q 144 208 182 208 q 80 180 108 208 q 52 116 52 153 q 176 23 52 23 l 147 -73 q 237 116 237 2 m 237 578 q 210 644 237 616 q 144 671 182 671 q 80 644 108 671 q 52 578 52 616 q 80 514 52 542 q 144 486 108 486 q 210 514 182 486 q 237 578 237 542 m 272 116 q 222 -39 272 35 q 93 -131 168 -121 l 130 -8 q 50 34 83 0 q 18 116 18 70 q 56 205 18 167 q 144 243 94 243 q 233 205 195 243 q 272 116 272 167 m 272 578 q 233 490 272 527 q 144 452 195 452 q 56 490 94 452 q 18 578 18 528 q 56 667 18 629 q 144 706 93 706 q 233 667 195 706 q 272 578 272 629 z "},"<":{"ha":521,"x_min":-51,"x_max":503,"o":"m -51 -10 l -51 23 l 503 23 l 503 -10 l -51 -10 m -51 267 l -51 301 l 503 301 l 503 267 l -51 267 z "},"=":{"ha":637,"x_min":18,"x_max":619,"o":"m 585 411 l 52 411 l 52 283 l 585 283 l 585 411 m 585 642 l 52 642 l 52 515 l 585 515 l 585 642 m 18 249 l 18 446 l 619 446 l 619 249 l 18 249 m 18 480 l 18 677 l 619 677 l 619 480 l 18 480 z "},">":{"ha":521,"x_min":-51,"x_max":503,"o":"m -51 625 l -51 660 l 503 660 l 503 625 l -51 625 m -51 903 l -51 937 l 503 937 l 503 903 l -51 903 z "},"?":{"ha":868,"x_min":18,"x_max":850,"o":"m 237 116 q 210 180 237 153 q 144 208 182 208 q 80 180 108 208 q 52 116 52 153 q 80 51 52 79 q 144 23 108 23 q 210 51 182 23 q 237 116 237 79 m 816 633 q 735 821 816 738 q 550 903 655 903 l 52 903 l 52 683 l 492 683 q 514 677 504 683 q 533 663 525 672 q 546 643 541 654 q 550 619 550 631 q 545 597 550 608 q 532 579 541 587 q 514 566 524 571 q 492 562 503 562 l 318 562 q 132 479 212 562 q 52 290 54 396 l 239 290 q 246 318 241 304 q 260 342 252 332 q 281 359 269 353 q 307 365 292 365 l 550 365 q 735 446 654 365 q 816 633 816 529 m 272 116 q 233 27 272 64 q 144 -10 196 -10 q 56 27 93 -10 q 18 116 18 65 q 56 205 18 167 q 144 243 94 243 q 233 205 195 243 q 272 116 272 167 m 850 633 q 760 422 850 515 q 550 330 669 330 l 307 330 q 272 254 269 330 l 18 254 l 18 293 q 109 504 18 411 q 318 596 199 596 l 492 596 q 515 619 515 596 q 492 648 515 648 l 18 648 l 18 937 l 550 937 q 760 844 669 937 q 850 633 850 751 z "},"@":{"ha":845,"x_min":18,"x_max":827,"o":"m 422 475 l 408 422 l 436 422 l 422 475 m 365 388 l 422 614 l 480 388 l 365 388 m 513 614 l 332 614 l 252 313 l 344 313 l 355 355 l 491 355 l 501 313 l 593 313 l 513 614 m 473 278 l 463 321 l 380 321 l 369 278 l 206 278 l 304 648 l 541 648 l 637 278 l 473 278 m 688 463 q 608 649 688 570 q 422 729 529 729 q 236 649 316 729 q 156 463 156 570 q 236 277 156 357 q 422 197 316 197 q 608 277 529 197 q 688 463 688 357 m 724 463 q 633 252 724 343 q 422 162 543 162 q 212 252 302 162 q 121 463 121 342 q 212 673 121 583 q 422 764 302 764 q 633 673 543 764 q 724 463 724 583 m 793 463 q 682 723 793 612 q 422 833 572 833 q 163 723 273 833 q 52 463 52 612 q 162 203 52 313 q 422 93 272 93 q 683 203 573 93 q 793 463 793 313 m 827 463 q 707 178 827 298 q 422 58 587 58 q 137 178 257 58 q 18 463 18 299 q 138 747 18 627 q 422 868 258 868 q 707 747 587 868 q 827 463 827 627 z "},"A":{"ha":1099,"x_min":-51,"x_max":1086,"o":"m 550 570 l 494 359 l 606 359 l 550 570 m 703 -10 l 673 104 l 427 104 l 397 -10 l 14 -10 l 180 625 l -51 625 l -51 660 l 224 660 l 58 23 l 369 23 l 399 139 l 701 139 l 730 23 l 1042 23 l 809 903 l -51 903 l -51 937 l 837 937 l 1086 -10 l 703 -10 m 450 324 l 550 709 l 649 324 l 450 324 z "},"B":{"ha":1042,"x_min":-51,"x_max":1024,"o":"m 654 301 q 649 323 654 313 q 636 341 644 334 q 618 354 629 349 q 596 359 608 359 l 365 359 l 365 243 l 596 243 q 618 248 608 243 q 636 260 629 252 q 649 279 644 269 q 654 301 654 290 m 642 625 q 637 647 642 637 q 625 666 633 658 q 607 678 617 673 q 585 683 596 683 l 365 683 l 365 567 l 585 567 q 607 572 596 567 q 625 584 617 576 q 637 603 633 592 q 642 625 642 613 m 688 301 q 661 236 688 264 q 596 208 633 208 l 330 208 l 330 393 l 596 393 q 661 366 633 393 q 688 301 688 338 m 1024 270 q 916 64 1024 147 q 688 -10 817 -10 l 18 -10 l 18 625 l -51 625 l -51 660 l 52 660 l 52 23 l 688 23 q 891 89 801 23 q 989 270 989 161 q 865 485 989 403 q 932 654 932 565 q 833 836 932 764 q 631 903 743 903 l -51 903 l -51 937 l 631 937 q 858 861 760 937 q 966 654 966 778 q 914 492 966 566 q 1024 270 1024 407 m 677 625 q 649 560 677 588 q 585 532 621 532 l 330 532 l 330 718 l 585 718 q 649 690 621 718 q 677 625 677 662 z "},"C":{"ha":926,"x_min":18,"x_max":978,"o":"m 521 -10 q 172 125 321 -10 q 18 463 18 265 q 172 801 18 661 q 521 937 321 937 l 909 937 l 909 625 l 521 625 q 404 576 455 625 q 353 463 353 528 q 404 349 353 398 q 521 301 456 301 l 978 301 l 978 267 l 521 267 q 379 325 441 267 q 318 463 318 382 q 379 601 318 542 q 521 660 441 660 l 874 660 l 874 903 l 521 903 q 195 777 334 903 q 52 463 52 648 q 195 149 52 278 q 521 23 334 23 l 978 23 l 978 -10 l 521 -10 z "},"D":{"ha":1042,"x_min":-51,"x_max":1024,"o":"m 688 463 q 637 576 688 528 q 521 625 587 625 l 365 625 l 365 301 l 521 301 q 637 349 585 301 q 688 463 688 398 m 1024 463 q 870 125 1024 265 q 521 -10 721 -10 l 18 -10 l 18 625 l -51 625 l -51 660 l 52 660 l 52 23 l 521 23 q 846 149 707 23 q 989 463 989 278 q 846 777 989 648 q 521 903 707 903 l -51 903 l -51 937 l 521 937 q 870 801 720 937 q 1024 463 1024 661 m 724 463 q 662 325 724 382 q 521 267 600 267 l 330 267 l 330 660 l 521 660 q 662 601 601 660 q 724 463 724 542 z "},"E":{"ha":984,"x_min":-51,"x_max":966,"o":"m 18 -10 l 18 625 l -51 625 l -51 660 l 52 660 l 52 23 l 932 23 l 932 267 l 353 267 l 353 365 l 701 365 l 701 562 l 353 562 l 353 660 l 932 660 l 932 903 l -51 903 l -51 937 l 966 937 l 966 625 l 388 625 l 388 596 l 735 596 l 735 330 l 388 330 l 388 301 l 966 301 l 966 -10 l 18 -10 z "},"F":{"ha":984,"x_min":-51,"x_max":966,"o":"m 388 625 l 388 596 l 735 596 l 735 330 l 388 330 l 388 -10 l 18 -10 l 18 625 l -51 625 l -51 660 l 52 660 l 52 23 l 353 23 l 353 365 l 701 365 l 701 562 l 353 562 l 353 660 l 932 660 l 932 903 l -51 903 l -51 937 l 966 937 l 966 625 l 388 625 z "},"G":{"ha":1042,"x_min":18,"x_max":1024,"o":"m 989 440 l 688 440 l 688 267 l 521 267 q 379 325 441 267 q 318 463 318 382 q 379 601 318 542 q 521 660 441 660 q 645 619 588 660 l 824 799 q 521 903 688 903 q 195 777 334 903 q 52 463 52 648 q 195 149 52 278 q 521 23 334 23 l 989 23 l 989 440 m 521 -10 q 172 125 321 -10 q 18 463 18 265 q 172 801 18 661 q 521 937 321 937 q 875 801 714 937 l 647 573 q 521 625 589 625 q 404 576 455 625 q 353 463 353 528 q 404 349 353 398 q 521 301 456 301 l 654 301 l 654 475 l 1024 475 l 1024 -10 l 521 -10 z "},"H":{"ha":1042,"x_min":-51,"x_max":1024,"o":"m 654 -10 l 654 330 l 388 330 l 388 -10 l 18 -10 l 18 625 l -51 625 l -51 660 l 52 660 l 52 23 l 353 23 l 353 365 l 688 365 l 688 23 l 989 23 l 989 903 l 688 903 l 688 562 l 353 562 l 353 903 l -51 903 l -51 937 l 388 937 l 388 596 l 654 596 l 654 937 l 1024 937 l 1024 -10 l 654 -10 z "},"I":{"ha":405,"x_min":-51,"x_max":388,"o":"m 18 -10 l 18 625 l -51 625 l -51 660 l 52 660 l 52 23 l 353 23 l 353 903 l -51 903 l -51 937 l 388 937 l 388 -10 l 18 -10 z "},"J":{"ha":608,"x_min":-51,"x_max":590,"o":"m 590 58 q 416 -203 590 -137 q 77 -242 317 -242 l 15 69 q 32 68 24 68 q 47 68 40 68 l 77 68 q 254 174 254 68 l 254 625 l -51 625 l -51 660 l 290 660 l 290 174 q 211 54 290 87 q 57 35 163 33 l 105 -207 l 111 -207 q 406 -170 313 -207 q 555 58 555 -111 l 555 903 l -51 903 l -51 937 l 590 937 l 590 58 z "},"K":{"ha":1042,"x_min":-51,"x_max":1035,"o":"m 690 444 l 822 311 q 863 301 832 301 l 1024 301 l 1024 -10 l 770 -10 q 530 108 649 -10 l 388 250 l 388 -10 l 18 -10 l 18 625 l -51 625 l -51 660 l 52 660 l 52 23 l 353 23 l 353 334 l 555 133 q 770 23 666 23 l 989 23 l 989 267 l 870 267 q 796 286 816 267 l 646 439 l 968 903 l 602 903 l 353 550 l 353 903 l -51 903 l -51 937 l 388 937 l 388 659 l 583 937 l 1035 937 l 690 444 z "},"L":{"ha":926,"x_min":-51,"x_max":909,"o":"m 18 -10 l 18 625 l -51 625 l -51 660 l 52 660 l 52 23 l 874 23 l 874 267 l 353 267 l 353 903 l -51 903 l -51 937 l 388 937 l 388 301 l 909 301 l 909 -10 l 18 -10 z "},"M":{"ha":1158,"x_min":-51,"x_max":1140,"o":"m 770 -10 l 770 252 l 578 -18 l 388 252 l 388 -10 l 18 -10 l 18 625 l -51 625 l -51 660 l 52 660 l 52 23 l 353 23 l 353 363 l 578 41 l 804 363 l 804 23 l 1105 23 l 1105 903 l 794 903 l 578 596 l 363 903 l -51 903 l -51 937 l 382 937 l 578 656 l 775 937 l 1140 937 l 1140 -10 l 770 -10 z "},"N":{"ha":1042,"x_min":-51,"x_max":1024,"o":"m 660 -10 l 388 337 l 388 -10 l 18 -10 l 18 625 l -51 625 l -51 660 l 52 660 l 52 23 l 353 23 l 353 439 l 676 23 l 989 23 l 989 903 l 688 903 l 688 488 l 366 903 l -51 903 l -51 937 l 382 937 l 654 589 l 654 937 l 1024 937 l 1024 -10 l 660 -10 z "},"O":{"ha":1042,"x_min":18,"x_max":1024,"o":"m 688 463 q 637 576 688 528 q 521 625 586 625 q 404 576 455 625 q 353 463 353 528 q 404 349 353 398 q 521 301 456 301 q 637 349 585 301 q 688 463 688 398 m 724 463 q 662 326 724 385 q 521 267 601 267 q 379 325 441 267 q 318 463 318 382 q 379 601 318 542 q 521 660 441 660 q 662 601 601 660 q 724 463 724 542 m 989 463 q 846 777 989 648 q 521 903 707 903 q 195 777 334 903 q 52 463 52 648 q 195 149 52 278 q 521 23 334 23 q 846 149 707 23 q 989 463 989 278 m 1024 463 q 870 125 1024 265 q 521 -10 721 -10 q 172 125 321 -10 q 18 463 18 265 q 172 801 18 661 q 521 937 321 937 q 870 801 720 937 q 1024 463 1024 661 z "},"P":{"ha":1042,"x_min":-51,"x_max":1024,"o":"m 1024 602 q 922 368 1024 470 q 688 267 821 267 l 388 267 l 388 -10 l 18 -10 l 18 509 l 596 509 q 618 514 608 509 q 636 527 629 519 q 649 545 644 534 q 654 567 654 555 q 649 589 654 578 q 636 608 644 600 q 618 621 629 616 q 596 625 608 625 l -51 625 l -51 660 l 596 660 q 661 632 633 660 q 688 567 688 604 q 661 503 688 530 q 596 475 633 475 l 52 475 l 52 23 l 353 23 l 353 301 l 688 301 q 898 392 807 301 q 989 602 989 484 q 898 811 989 720 q 688 903 807 903 l -51 903 l -51 937 l 688 937 q 922 836 821 937 q 1024 602 1024 734 z "},"Q":{"ha":1099,"x_min":18,"x_max":1082,"o":"m 688 463 q 637 576 688 528 q 521 625 586 625 q 404 576 455 625 q 353 463 353 528 q 404 349 353 398 q 521 301 456 301 q 637 349 585 301 q 688 463 688 398 m 724 463 q 662 326 724 385 q 521 267 601 267 q 379 325 441 267 q 318 463 318 382 q 379 601 318 542 q 521 660 441 660 q 662 601 601 660 q 724 463 724 542 m 1048 267 l 945 267 q 989 463 989 365 q 846 777 989 648 q 521 903 707 903 q 195 777 334 903 q 52 463 52 648 q 195 149 52 278 q 521 23 334 23 l 1048 23 l 1048 267 m 521 -10 q 172 125 321 -10 q 18 463 18 265 q 172 801 18 661 q 521 937 321 937 q 870 801 720 937 q 1024 463 1024 661 q 996 301 1024 379 l 1082 301 l 1082 -10 l 521 -10 z "},"R":{"ha":1099,"x_min":-51,"x_max":1082,"o":"m 770 -10 q 530 108 649 -10 l 388 250 l 388 -10 l 18 -10 l 18 509 l 596 509 q 618 514 608 509 q 636 527 629 519 q 649 545 644 534 q 654 567 654 555 q 649 589 654 578 q 636 608 644 600 q 618 621 629 616 q 596 625 608 625 l -51 625 l -51 660 l 596 660 q 661 632 633 660 q 688 567 688 604 q 661 503 688 530 q 596 475 633 475 l 52 475 l 52 23 l 353 23 l 353 334 l 555 133 q 770 23 666 23 l 1048 23 l 1048 267 l 874 267 q 780 339 818 267 q 929 444 873 375 q 989 614 989 519 q 898 817 989 730 q 688 903 808 903 l -51 903 l -51 937 l 688 937 q 922 841 822 937 q 1024 614 1024 745 q 970 441 1024 521 q 832 321 916 361 q 874 301 849 301 l 1082 301 l 1082 -10 l 770 -10 z "},"S":{"ha":984,"x_min":-51,"x_max":966,"o":"m 587 625 q 575 610 574 625 q 742 484 632 570 q 850 264 850 393 q 755 67 850 151 q 549 -10 665 -10 l -51 -10 l -51 23 l 549 23 q 732 92 649 23 q 816 264 816 163 q 624 532 816 412 q 593 552 611 540 q 553 582 576 564 q 541 610 541 595 q 544 629 541 620 q 554 645 548 637 q 569 656 561 652 q 587 660 577 660 l 932 660 l 932 903 l 434 903 q 248 825 330 903 q 168 645 168 748 q 233 475 168 547 q 280 432 250 456 q 354 380 311 409 q 419 317 419 340 q 406 282 419 298 q 373 267 393 267 l -51 267 l -51 301 l 373 301 q 385 317 385 301 q 323 360 353 339 q 262 403 292 381 q 170 500 200 452 q 133 645 133 559 q 224 849 133 762 q 434 937 315 937 l 966 937 l 966 625 l 587 625 z "},"T":{"ha":1042,"x_min":-51,"x_max":1024,"o":"m 706 625 l 706 -10 l 336 -10 l 336 625 l -51 625 l -51 660 l 370 660 l 370 23 l 671 23 l 671 660 l 989 660 l 989 903 l -51 903 l -51 937 l 1024 937 l 1024 625 l 706 625 z "},"U":{"ha":1042,"x_min":-51,"x_max":1024,"o":"m 1024 463 q 870 125 1024 265 q 521 -10 721 -10 q 172 125 321 -10 q 18 463 18 265 l 18 625 l -51 625 l -51 660 l 52 660 l 52 463 q 195 149 52 278 q 521 23 334 23 q 846 149 707 23 q 989 463 989 278 l 989 903 l 724 903 l 724 463 q 662 326 724 385 q 521 267 601 267 q 379 325 441 267 q 318 463 318 382 l 318 903 l -51 903 l -51 937 l 353 937 l 353 463 q 404 349 353 398 q 521 301 456 301 q 637 349 585 301 q 688 463 688 398 l 688 937 l 1024 937 l 1024 463 z "},"V":{"ha":1099,"x_min":-51,"x_max":1086,"o":"m 837 -10 l 262 -10 l 96 625 l -51 625 l -51 660 l 124 660 l 290 23 l 809 23 l 1042 903 l 730 903 l 550 218 l 369 903 l -51 903 l -51 937 l 397 937 l 550 354 l 703 937 l 1086 937 l 837 -10 z "},"W":{"ha":1493,"x_min":-51,"x_max":1479,"o":"m 1230 -10 l 819 -10 l 747 264 l 675 -10 l 262 -10 l 96 625 l -51 625 l -51 660 l 124 660 l 290 23 l 647 23 l 747 401 l 846 23 l 1202 23 l 1435 903 l 1124 903 l 1024 526 l 925 903 l 568 903 l 469 526 l 369 903 l -51 903 l -51 937 l 397 937 l 469 662 l 541 937 l 953 937 l 1024 662 l 1096 937 l 1479 937 l 1230 -10 z "},"X":{"ha":1215,"x_min":-51,"x_max":1211,"o":"m 752 -10 l 608 172 l 463 -10 l 5 -10 l 378 463 l 251 625 l -51 625 l -51 660 l 267 660 l 422 463 l 77 23 l 447 23 l 608 228 l 768 23 l 1139 23 l 793 463 l 1139 903 l 768 903 l 608 698 l 447 903 l -51 903 l -51 937 l 463 937 l 608 753 l 752 937 l 1211 937 l 837 463 l 1211 -10 l 752 -10 z "},"Y":{"ha":1146,"x_min":-51,"x_max":1137,"o":"m 758 286 l 758 -10 l 388 -10 l 388 286 l 190 625 l -51 625 l -51 660 l 211 660 l 422 295 l 422 23 l 724 23 l 724 295 l 1076 903 l 737 903 l 573 606 l 408 903 l -51 903 l -51 937 l 429 937 l 573 678 l 716 937 l 1137 937 l 758 286 z "},"Z":{"ha":1042,"x_min":-51,"x_max":1035,"o":"m 614 301 l 1024 301 l 1024 -10 l 7 -10 l 428 625 l -51 625 l -51 660 l 493 660 l 72 23 l 989 23 l 989 267 l 549 267 l 970 903 l -51 903 l -51 937 l 1035 937 l 614 301 z "},"[":{"ha":133,"x_min":18,"x_max":116,"o":"m 18 -10 l 18 301 l 116 301 l 116 267 l 52 267 l 52 23 l 116 23 l 116 -10 l 18 -10 z "},"\\":{"ha":614,"x_min":-14,"x_max":629,"o":"m 203 1017 l 29 954 l 410 -90 l 585 -26 l 203 1017 m 389 -134 l -14 975 l 224 1061 l 629 -47 l 389 -134 z "},"]":{"ha":69,"x_min":-51,"x_max":52,"o":"m -51 -10 l -51 23 l 18 23 l 18 267 l -51 267 l -51 301 l 52 301 l 52 -10 l -51 -10 z "},"^":{"ha":660,"x_min":9,"x_max":650,"o":"m 385 903 l 274 903 l 69 544 l 154 544 l 330 850 l 506 544 l 590 544 l 385 903 m 485 509 l 330 781 l 175 509 l 9 509 l 254 937 l 406 937 l 650 509 l 485 509 z "},"_":{"ha":463,"x_min":-10,"x_max":475,"o":"m 440 151 l 23 151 l 23 23 l 440 23 l 440 151 m -10 -10 l -10 185 l 475 185 l 475 -10 l -10 -10 z "},"`":{"ha":578,"x_min":3,"x_max":562,"o":"m 151 1131 l 80 1059 q 175 1048 117 1055 q 316 1030 234 1041 q 493 1004 375 1023 l 151 1131 m 3 1034 l 141 1170 l 562 1015 l 562 971 l 3 1034 z "},"a":{"ha":1099,"x_min":14,"x_max":1152,"o":"m 550 570 l 494 359 l 606 359 l 550 570 m 919 625 l 1086 -10 l 703 -10 l 673 104 l 427 104 l 397 -10 l 14 -10 l 262 937 l 1152 937 l 1152 903 l 290 903 l 58 23 l 369 23 l 399 139 l 701 139 l 730 23 l 1042 23 l 875 660 l 1152 660 l 1152 625 l 919 625 m 450 324 l 550 709 l 649 324 l 450 324 z "},"b":{"ha":1042,"x_min":18,"x_max":1024,"o":"m 654 301 q 649 323 654 313 q 636 341 644 334 q 618 354 629 349 q 596 359 608 359 l 365 359 l 365 243 l 596 243 q 618 248 608 243 q 636 260 629 252 q 649 279 644 269 q 654 301 654 290 m 642 625 q 637 647 642 637 q 625 666 633 658 q 607 678 617 673 q 585 683 596 683 l 365 683 l 365 567 l 585 567 q 607 572 596 567 q 625 584 617 576 q 637 603 633 592 q 642 625 642 613 m 688 301 q 661 236 688 264 q 596 208 633 208 l 330 208 l 330 393 l 596 393 q 661 366 633 393 q 688 301 688 338 m 677 625 q 649 560 677 588 q 585 532 621 532 l 330 532 l 330 718 l 585 718 q 649 690 621 718 q 677 625 677 662 m 989 270 q 865 485 989 403 q 932 654 932 566 q 833 836 932 764 q 631 903 743 903 l 52 903 l 52 23 l 688 23 q 891 89 801 23 q 989 270 989 161 m 1024 270 q 916 64 1024 147 q 688 -10 817 -10 l 18 -10 l 18 937 l 631 937 q 858 861 760 937 q 966 654 966 778 q 914 492 966 566 q 1024 270 1024 407 z "},"c":{"ha":926,"x_min":18,"x_max":978,"o":"m 521 625 q 404 576 455 625 q 353 463 353 528 q 404 349 353 398 q 521 301 456 301 l 909 301 l 909 -10 l 521 -10 q 172 125 321 -10 q 18 463 18 265 q 172 801 18 661 q 521 937 321 937 l 978 937 l 978 903 l 521 903 q 195 777 334 903 q 52 463 52 648 q 195 149 52 278 q 521 23 334 23 l 874 23 l 874 267 l 521 267 q 379 325 441 267 q 318 463 318 382 q 379 601 318 542 q 521 660 441 660 l 978 660 l 978 625 l 521 625 z "},"d":{"ha":1042,"x_min":18,"x_max":1024,"o":"m 688 463 q 637 576 688 528 q 521 625 587 625 l 365 625 l 365 301 l 521 301 q 637 349 585 301 q 688 463 688 398 m 724 463 q 662 325 724 382 q 521 267 600 267 l 330 267 l 330 660 l 521 660 q 662 601 601 660 q 724 463 724 542 m 989 463 q 846 777 989 648 q 521 903 707 903 l 52 903 l 52 23 l 521 23 q 846 149 707 23 q 989 463 989 278 m 1024 463 q 870 125 1024 265 q 521 -10 721 -10 l 18 -10 l 18 937 l 521 937 q 870 801 720 937 q 1024 463 1024 661 z "},"e":{"ha":984,"x_min":18,"x_max":1036,"o":"m 388 625 l 388 596 l 735 596 l 735 330 l 388 330 l 388 301 l 966 301 l 966 -10 l 18 -10 l 18 937 l 1036 937 l 1036 903 l 52 903 l 52 23 l 932 23 l 932 267 l 353 267 l 353 365 l 701 365 l 701 562 l 353 562 l 353 660 l 1036 660 l 1036 625 l 388 625 z "},"f":{"ha":984,"x_min":18,"x_max":1036,"o":"m 388 625 l 388 596 l 735 596 l 735 330 l 388 330 l 388 -10 l 18 -10 l 18 937 l 1036 937 l 1036 903 l 52 903 l 52 23 l 353 23 l 353 365 l 701 365 l 701 562 l 353 562 l 353 660 l 1036 660 l 1036 625 l 388 625 z "},"g":{"ha":1042,"x_min":18,"x_max":1094,"o":"m 521 625 q 404 576 455 625 q 353 463 353 528 q 404 349 353 398 q 521 301 456 301 l 654 301 l 654 475 l 1024 475 l 1024 -10 l 521 -10 q 172 125 321 -10 q 18 463 18 265 q 172 801 18 661 q 521 937 321 937 l 1094 937 l 1094 903 l 521 903 q 195 777 334 903 q 52 463 52 648 q 195 149 52 278 q 521 23 334 23 l 989 23 l 989 440 l 688 440 l 688 267 l 521 267 q 379 325 441 267 q 318 463 318 382 q 379 601 318 542 q 521 660 441 660 l 1094 660 l 1094 625 l 521 625 z "},"h":{"ha":1042,"x_min":18,"x_max":1094,"o":"m 1024 625 l 1024 -10 l 654 -10 l 654 330 l 388 330 l 388 -10 l 18 -10 l 18 937 l 388 937 l 388 596 l 654 596 l 654 937 l 1094 937 l 1094 903 l 688 903 l 688 562 l 353 562 l 353 903 l 52 903 l 52 23 l 353 23 l 353 365 l 688 365 l 688 23 l 989 23 l 989 660 l 1094 660 l 1094 625 l 1024 625 z "},"i":{"ha":405,"x_min":18,"x_max":457,"o":"m 388 625 l 388 -10 l 18 -10 l 18 937 l 457 937 l 457 903 l 52 903 l 52 23 l 353 23 l 353 660 l 457 660 l 457 625 l 388 625 z "},"j":{"ha":608,"x_min":15,"x_max":660,"o":"m 590 625 l 590 58 q 416 -203 590 -137 q 77 -242 317 -242 l 15 69 q 32 68 24 68 q 47 68 40 68 l 77 68 q 254 174 254 68 l 254 937 l 660 937 l 660 903 l 290 903 l 290 174 q 211 54 290 87 q 146 39 185 43 q 57 35 108 34 l 105 -207 l 115 -207 q 408 -169 312 -207 q 555 58 555 -110 l 555 660 l 660 660 l 660 625 l 590 625 z "},"k":{"ha":1042,"x_min":18,"x_max":1094,"o":"m 770 -10 q 530 108 649 -10 l 388 250 l 388 -10 l 18 -10 l 18 937 l 388 937 l 388 659 l 583 937 l 1035 937 l 690 444 l 822 311 q 863 301 832 301 l 1094 301 l 1094 267 l 861 267 q 796 286 816 267 l 646 439 l 968 903 l 602 903 l 353 550 l 353 903 l 52 903 l 52 23 l 353 23 l 353 334 l 555 133 q 770 23 666 23 l 1094 23 l 1094 -10 l 770 -10 z "},"l":{"ha":926,"x_min":18,"x_max":978,"o":"m 18 -10 l 18 937 l 388 937 l 388 301 l 978 301 l 978 267 l 353 267 l 353 903 l 52 903 l 52 23 l 978 23 l 978 -10 l 18 -10 z "},"m":{"ha":1158,"x_min":18,"x_max":1209,"o":"m 1140 625 l 1140 -10 l 770 -10 l 770 252 l 578 -18 l 388 252 l 388 -10 l 18 -10 l 18 937 l 382 937 l 578 656 l 775 937 l 1209 937 l 1209 903 l 794 903 l 578 596 l 363 903 l 52 903 l 52 23 l 353 23 l 353 363 l 578 41 l 804 363 l 804 23 l 1105 23 l 1105 660 l 1209 660 l 1209 625 l 1140 625 z "},"n":{"ha":1042,"x_min":18,"x_max":1094,"o":"m 1024 625 l 1024 -10 l 660 -10 l 388 337 l 388 -10 l 18 -10 l 18 937 l 382 937 l 654 589 l 654 937 l 1094 937 l 1094 903 l 688 903 l 688 488 l 366 903 l 52 903 l 52 23 l 353 23 l 353 439 l 676 23 l 989 23 l 989 660 l 1094 660 l 1094 625 l 1024 625 z "},"o":{"ha":1042,"x_min":18,"x_max":1024,"o":"m 688 463 q 637 576 688 528 q 521 625 587 625 q 404 576 455 625 q 353 463 353 528 q 404 349 353 398 q 521 301 456 301 q 637 349 585 301 q 688 463 688 398 m 724 463 q 662 326 724 385 q 521 267 601 267 q 379 325 441 267 q 318 463 318 382 q 379 601 318 542 q 521 660 441 660 q 662 601 601 660 q 724 463 724 542 m 989 463 q 846 777 989 648 q 521 903 707 903 q 195 777 334 903 q 52 463 52 648 q 195 149 52 278 q 521 23 334 23 q 846 149 707 23 q 989 463 989 278 m 1024 463 q 870 125 1024 265 q 521 -10 721 -10 q 172 125 321 -10 q 18 463 18 265 q 172 801 18 661 q 521 937 321 937 q 870 801 720 937 q 1024 463 1024 661 z "},"p":{"ha":1042,"x_min":18,"x_max":1024,"o":"m 654 602 q 649 624 654 614 q 636 643 644 635 q 618 655 629 650 q 596 660 608 660 l 388 660 l 388 544 l 596 544 q 618 549 608 544 q 636 561 629 553 q 649 579 644 569 q 654 602 654 590 m 688 602 q 661 537 688 565 q 596 509 633 509 l 353 509 l 353 694 l 596 694 q 661 667 633 694 q 688 602 688 639 m 989 602 q 898 811 989 720 q 688 903 807 903 l 52 903 l 52 23 l 353 23 l 353 301 l 688 301 q 898 392 807 301 q 989 602 989 484 m 1024 602 q 922 368 1024 470 q 688 267 821 267 l 388 267 l 388 -10 l 18 -10 l 18 937 l 688 937 q 922 836 821 937 q 1024 602 1024 734 z "},"q":{"ha":1099,"x_min":18,"x_max":1082,"o":"m 688 463 q 637 576 688 528 q 521 625 586 625 q 404 576 455 625 q 353 463 353 528 q 404 349 353 398 q 521 301 456 301 q 637 349 585 301 q 688 463 688 398 m 724 463 q 662 326 724 385 q 521 267 601 267 q 379 325 441 267 q 318 463 318 382 q 379 601 318 542 q 521 660 441 660 q 662 601 601 660 q 724 463 724 542 m 1048 267 l 945 267 q 989 463 989 365 q 846 777 989 648 q 521 903 707 903 q 195 777 334 903 q 52 463 52 648 q 195 149 52 278 q 521 23 334 23 l 1048 23 l 1048 267 m 521 -10 q 172 125 321 -10 q 18 463 18 265 q 172 801 18 661 q 521 937 321 937 q 870 801 720 937 q 1024 463 1024 661 q 996 301 1024 379 l 1082 301 l 1082 -10 l 521 -10 z "},"r":{"ha":1099,"x_min":18,"x_max":1152,"o":"m 654 602 q 649 624 654 614 q 636 643 644 635 q 618 655 629 650 q 596 660 608 660 l 388 660 l 388 544 l 596 544 q 618 549 608 544 q 636 561 629 553 q 649 579 644 569 q 654 602 654 590 m 770 -10 q 530 108 649 -10 l 388 250 l 388 -10 l 18 -10 l 18 937 l 688 937 q 922 841 822 937 q 1024 614 1024 745 q 970 441 1024 521 q 832 321 916 361 q 874 301 849 301 l 1152 301 l 1152 267 l 874 267 q 780 339 814 267 q 928 444 872 374 q 989 614 989 519 q 898 817 989 730 q 688 903 808 903 l 52 903 l 52 23 l 353 23 l 353 334 l 555 133 q 770 23 666 23 l 1152 23 l 1152 -10 l 770 -10 m 688 602 q 661 537 688 565 q 596 509 633 509 l 353 509 l 353 694 l 596 694 q 661 667 633 694 q 688 602 688 639 z "},"s":{"ha":984,"x_min":18,"x_max":1036,"o":"m 587 625 q 575 610 574 625 q 742 484 632 570 q 850 264 850 393 q 755 67 850 151 q 549 -10 665 -10 l 18 -10 l 18 301 l 373 301 q 385 317 385 301 q 323 360 353 339 q 262 403 292 381 q 170 500 200 452 q 133 645 133 559 q 224 849 133 762 q 434 937 315 937 l 1036 937 l 1036 903 l 434 903 q 248 825 330 903 q 168 645 168 748 q 233 475 168 547 q 280 432 250 456 q 354 380 311 409 q 419 317 419 340 q 406 282 419 298 q 373 267 393 267 l 52 267 l 52 23 l 549 23 q 732 92 649 23 q 816 264 816 163 q 624 532 816 412 q 593 552 611 540 q 553 582 576 564 q 541 610 541 595 q 544 629 541 620 q 554 645 548 637 q 569 656 561 652 q 587 660 577 660 l 1036 660 l 1036 625 l 587 625 z "},"t":{"ha":1042,"x_min":18,"x_max":1094,"o":"m 706 625 l 706 -10 l 336 -10 l 336 625 l 18 625 l 18 937 l 1094 937 l 1094 903 l 52 903 l 52 660 l 370 660 l 370 23 l 671 23 l 671 660 l 1094 660 l 1094 625 l 706 625 z "},"u":{"ha":1042,"x_min":18,"x_max":1094,"o":"m 1024 625 l 1024 463 q 870 125 1024 265 q 521 -10 721 -10 q 172 125 321 -10 q 18 463 18 265 l 18 937 l 353 937 l 353 463 q 404 349 353 398 q 521 301 456 301 q 637 349 585 301 q 688 463 688 398 l 688 937 l 1094 937 l 1094 903 l 724 903 l 724 463 q 662 326 724 385 q 521 267 601 267 q 379 325 441 267 q 318 463 318 382 l 318 903 l 52 903 l 52 463 q 195 149 52 278 q 521 23 334 23 q 846 149 707 23 q 989 463 989 278 l 989 660 l 1094 660 l 1094 625 l 1024 625 z "},"v":{"ha":1099,"x_min":14,"x_max":1152,"o":"m 1004 625 l 837 -10 l 262 -10 l 14 937 l 397 937 l 550 354 l 703 937 l 1152 937 l 1152 903 l 730 903 l 550 218 l 369 903 l 58 903 l 290 23 l 809 23 l 976 660 l 1152 660 l 1152 625 l 1004 625 z "},"w":{"ha":1493,"x_min":14,"x_max":1545,"o":"m 1397 625 l 1230 -10 l 819 -10 l 747 264 l 675 -10 l 262 -10 l 14 937 l 397 937 l 469 662 l 541 937 l 953 937 l 1024 662 l 1096 937 l 1545 937 l 1545 903 l 1124 903 l 1024 526 l 925 903 l 568 903 l 469 526 l 369 903 l 58 903 l 290 23 l 647 23 l 747 401 l 846 23 l 1202 23 l 1369 660 l 1545 660 l 1545 625 l 1397 625 z "},"x":{"ha":1215,"x_min":5,"x_max":1267,"o":"m 964 625 l 837 463 l 1211 -10 l 752 -10 l 608 172 l 463 -10 l 5 -10 l 378 463 l 5 937 l 463 937 l 608 753 l 752 937 l 1267 937 l 1267 903 l 768 903 l 608 698 l 447 903 l 77 903 l 422 463 l 77 23 l 447 23 l 608 228 l 768 23 l 1139 23 l 793 463 l 948 660 l 1267 660 l 1267 625 l 964 625 z "},"y":{"ha":1146,"x_min":9,"x_max":1198,"o":"m 956 625 l 758 286 l 758 -10 l 388 -10 l 388 286 l 9 937 l 429 937 l 573 678 l 716 937 l 1198 937 l 1198 903 l 737 903 l 573 606 l 408 903 l 69 903 l 422 295 l 422 23 l 724 23 l 724 295 l 935 660 l 1198 660 l 1198 625 l 956 625 z "},"z":{"ha":1042,"x_min":7,"x_max":1094,"o":"m 7 -10 l 428 625 l 18 625 l 18 937 l 1035 937 l 614 301 l 1094 301 l 1094 267 l 549 267 l 970 903 l 52 903 l 52 660 l 493 660 l 72 23 l 1094 23 l 1094 -10 l 7 -10 z "},"{":{"ha":133,"x_min":18,"x_max":116,"o":"m 18 625 l 18 937 l 116 937 l 116 903 l 52 903 l 52 660 l 116 660 l 116 625 l 18 625 z "},"|":{"ha":321,"x_min":18,"x_max":272,"o":"m 237 1019 l 52 1019 l 52 -92 l 237 -92 l 237 1019 m 18 -126 l 18 1053 l 272 1053 l 272 -126 l 18 -126 z "},"}":{"ha":69,"x_min":-51,"x_max":52,"o":"m -51 625 l -51 660 l 18 660 l 18 903 l -51 903 l -51 937 l 52 937 l 52 625 l -51 625 z "},"~":{"ha":521,"x_min":18,"x_max":503,"o":"m 469 1099 q 376 1068 423 1068 q 261 1096 337 1068 q 146 1124 185 1124 q 52 1091 95 1124 l 52 1031 q 146 1063 98 1063 q 259 1035 183 1063 q 373 1007 335 1007 q 469 1044 418 1007 l 469 1099 m 503 1025 q 373 972 433 972 q 259 1000 335 972 q 146 1028 183 1028 q 18 960 94 1028 l 18 1107 q 146 1158 77 1158 q 261 1131 185 1158 q 376 1103 337 1103 q 503 1171 427 1103 l 503 1025 z "},"":{"ha":290,"x_min":18,"x_max":272,"o":"m 237 116 q 210 180 237 153 q 144 208 182 208 q 80 180 108 208 q 52 116 52 153 q 176 23 52 23 l 147 -73 q 237 116 237 2 m 272 116 q 222 -39 272 35 q 93 -131 168 -121 l 130 -8 q 50 34 83 0 q 18 116 18 70 q 56 205 18 167 q 144 243 94 243 q 233 205 195 243 q 272 116 272 167 z "},"":{"ha":578,"x_min":18,"x_max":562,"o":"m 237 116 q 210 180 237 153 q 144 208 182 208 q 80 180 108 208 q 52 116 52 153 q 176 23 52 23 l 147 -73 q 237 116 237 2 m 527 116 q 499 180 527 153 q 434 208 471 208 q 369 180 397 208 q 341 116 341 153 q 465 23 341 23 l 436 -73 q 527 116 527 2 m 272 116 q 222 -39 272 35 q 93 -131 168 -121 l 130 -8 q 50 34 83 0 q 18 116 18 70 q 56 205 18 167 q 144 243 94 243 q 233 205 195 243 q 272 116 272 167 m 562 116 q 511 -39 562 37 q 382 -131 457 -122 l 419 -8 q 339 34 373 0 q 307 116 307 68 q 345 205 307 167 q 434 243 385 243 q 523 205 485 243 q 562 116 562 167 z "},"":{"ha":868,"x_min":18,"x_max":850,"o":"m 237 116 q 210 180 237 153 q 144 208 182 208 q 80 180 108 208 q 52 116 52 153 q 80 51 52 79 q 144 23 108 23 q 210 51 182 23 q 237 116 237 79 m 527 116 q 499 180 527 153 q 434 208 471 208 q 369 180 397 208 q 341 116 341 153 q 369 51 341 79 q 434 23 397 23 q 499 51 471 23 q 527 116 527 79 m 816 116 q 788 180 816 153 q 724 208 760 208 q 659 180 686 208 q 631 116 631 153 q 659 51 631 79 q 724 23 686 23 q 788 51 760 23 q 816 116 816 79 m 272 116 q 233 27 272 64 q 144 -10 196 -10 q 56 27 93 -10 q 18 116 18 65 q 56 205 18 167 q 144 243 94 243 q 233 205 195 243 q 272 116 272 167 m 562 116 q 523 27 562 64 q 434 -10 486 -10 q 345 27 382 -10 q 307 116 307 65 q 345 205 307 167 q 434 243 385 243 q 523 205 485 243 q 562 116 562 167 m 850 116 q 812 27 850 65 q 724 -10 775 -10 q 634 27 671 -10 q 596 116 596 65 q 634 205 596 167 q 724 243 674 243 q 812 205 774 243 q 850 116 850 167 z "},"":{"ha":1657,"x_min":18,"x_max":1640,"o":"m 336 694 q 313 747 336 724 q 260 770 290 770 q 208 747 231 770 q 185 694 185 724 q 208 642 185 665 q 260 619 231 619 q 313 642 290 619 q 336 694 336 665 m 986 231 q 964 284 986 262 q 911 307 941 307 q 858 284 881 307 q 836 231 836 262 q 858 178 836 201 q 911 156 881 156 q 964 178 941 156 q 986 231 986 201 m 1472 231 q 1449 284 1472 262 q 1397 307 1427 307 q 1344 284 1367 307 q 1322 231 1322 262 q 1344 178 1322 201 q 1397 156 1367 156 q 1449 178 1427 156 q 1472 231 1472 201 m 370 694 q 336 618 370 652 q 260 585 303 585 q 184 618 217 585 q 151 694 151 651 q 184 770 151 737 q 260 804 218 804 q 336 770 302 804 q 370 694 370 736 m 1021 231 q 987 155 1021 189 q 911 121 954 121 q 834 155 867 121 q 801 231 801 188 q 834 307 801 274 q 911 341 868 341 q 987 307 953 341 q 1021 231 1021 273 m 1507 231 q 1473 155 1507 189 q 1397 121 1440 121 q 1320 155 1354 121 q 1287 231 1287 188 q 1320 307 1287 274 q 1397 341 1354 341 q 1473 307 1439 341 q 1507 231 1507 273 m 469 694 q 406 840 469 777 q 260 903 342 903 q 115 840 178 903 q 52 694 52 777 q 115 549 52 612 q 260 486 178 486 q 406 549 342 486 q 469 694 469 612 m 649 909 l 347 81 l 522 18 l 824 845 l 649 909 m 1119 231 q 1056 377 1119 314 q 911 440 993 440 q 766 377 829 440 q 703 231 703 314 q 766 86 703 149 q 911 23 829 23 q 1056 86 993 23 q 1119 231 1119 149 m 1605 231 q 1542 377 1605 314 q 1397 440 1479 440 q 1252 377 1315 440 q 1189 231 1189 314 q 1252 86 1189 149 q 1397 23 1315 23 q 1542 86 1479 23 q 1605 231 1605 149 m 503 694 q 430 525 503 598 q 260 452 357 452 q 91 525 164 452 q 18 694 18 598 q 91 864 18 791 q 260 937 164 937 q 430 864 357 937 q 503 694 503 791 m 543 -26 l 303 60 l 629 953 l 868 866 l 543 -26 m 1154 231 q 1080 62 1154 136 q 911 -10 1006 -10 q 741 62 816 -10 q 668 231 668 136 q 741 401 668 328 q 911 475 814 475 q 1080 401 1007 475 q 1154 231 1154 328 m 1640 231 q 1567 62 1640 136 q 1397 -10 1492 -10 q 1227 62 1302 -10 q 1154 231 1154 136 q 1227 401 1154 328 q 1397 475 1301 475 q 1567 401 1493 475 q 1640 231 1640 328 z "},"":{"ha":984,"x_min":-51,"x_max":966,"o":"m 649 1135 l 492 1016 l 334 1135 l 224 1135 l 395 1007 l 589 1007 l 760 1135 l 649 1135 m 587 625 q 575 610 574 625 q 742 484 632 570 q 850 264 850 393 q 755 67 850 151 q 549 -10 665 -10 l -51 -10 l -51 23 l 549 23 q 732 92 649 23 q 816 264 816 163 q 624 532 816 412 q 593 552 611 540 q 553 582 576 564 q 541 610 541 595 q 544 629 541 620 q 554 645 548 637 q 569 656 561 652 q 587 660 577 660 l 932 660 l 932 903 l 434 903 q 248 825 330 903 q 168 645 168 748 q 233 475 168 547 q 280 432 250 456 q 354 380 311 409 q 419 317 419 340 q 406 282 419 298 q 373 267 393 267 l -51 267 l -51 301 l 373 301 q 385 317 385 301 q 323 360 353 339 q 262 403 292 381 q 170 500 200 452 q 133 645 133 559 q 224 849 133 762 q 434 937 315 937 l 966 937 l 966 625 l 587 625 m 601 972 l 383 972 l 120 1169 l 346 1169 l 492 1060 l 637 1169 l 863 1169 l 601 972 z "},"":{"ha":1661,"x_min":18,"x_max":1643,"o":"m 688 463 q 637 576 688 528 q 521 625 586 625 q 404 576 455 625 q 353 463 353 528 q 404 349 353 398 q 521 301 456 301 q 637 349 585 301 q 688 463 688 398 m 724 463 q 662 326 724 385 q 521 267 601 267 q 379 325 441 267 q 318 463 318 382 q 379 601 318 542 q 521 660 441 660 q 662 601 601 660 q 724 463 724 542 m 1609 267 l 1030 267 l 1030 365 l 1377 365 l 1377 562 l 1030 562 l 1030 660 l 1609 660 l 1609 903 l 729 903 l 729 858 q 521 903 619 903 q 195 777 334 903 q 52 463 52 648 q 195 149 52 278 q 521 23 334 23 q 729 68 622 23 l 729 23 l 1609 23 l 1609 267 m 694 -10 l 694 18 q 521 -10 608 -10 q 172 125 321 -10 q 18 463 18 265 q 172 801 18 661 q 521 937 321 937 q 694 907 606 937 l 694 937 l 1643 937 l 1643 625 l 1065 625 l 1065 596 l 1412 596 l 1412 330 l 1065 330 l 1065 301 l 1643 301 l 1643 -10 l 694 -10 z "},"":{"ha":290,"x_min":18,"x_max":272,"o":"m 237 694 q 113 787 237 787 l 142 884 q 52 694 52 808 q 80 629 52 657 q 144 602 108 602 q 210 629 182 602 q 237 694 237 657 m 272 694 q 233 605 272 644 q 144 567 195 567 q 56 605 94 567 q 18 694 18 645 q 67 850 18 777 q 197 942 120 932 l 160 819 q 239 777 207 811 q 272 694 272 742 z "},"":{"ha":290,"x_min":18,"x_max":272,"o":"m 237 810 q 210 875 237 847 q 144 903 182 903 q 80 875 108 903 q 52 810 52 847 q 176 718 52 718 l 147 621 q 237 810 237 696 m 272 810 q 222 654 272 730 q 93 562 168 572 l 130 685 q 50 728 82 693 q 18 810 18 764 q 56 899 18 861 q 144 937 94 937 q 233 899 195 937 q 272 810 272 861 z "},"":{"ha":578,"x_min":18,"x_max":562,"o":"m 237 694 q 113 787 237 787 l 142 884 q 52 694 52 808 q 80 629 52 657 q 144 602 108 602 q 210 629 182 602 q 237 694 237 657 m 527 694 q 403 787 527 787 l 432 884 q 341 694 341 808 q 369 629 341 657 q 434 602 397 602 q 499 629 471 602 q 527 694 527 657 m 272 694 q 233 605 272 644 q 144 567 195 567 q 56 605 94 567 q 18 694 18 645 q 67 850 18 777 q 197 942 120 932 l 160 819 q 239 777 207 811 q 272 694 272 742 m 562 694 q 523 605 562 644 q 434 567 485 567 q 345 605 385 567 q 307 694 307 645 q 357 850 307 774 q 486 942 410 932 l 449 819 q 529 777 496 811 q 562 694 562 742 z "},"":{"ha":578,"x_min":18,"x_max":562,"o":"m 237 810 q 210 875 237 847 q 144 903 182 903 q 80 875 108 903 q 52 810 52 847 q 176 718 52 718 l 147 621 q 237 810 237 696 m 527 810 q 499 875 527 847 q 434 903 471 903 q 369 875 397 903 q 341 810 341 847 q 465 718 341 718 l 436 621 q 527 810 527 697 m 272 810 q 222 654 272 730 q 93 562 168 572 l 130 685 q 50 728 82 693 q 18 810 18 764 q 56 899 18 861 q 144 937 94 937 q 233 899 195 937 q 272 810 272 861 m 562 810 q 511 654 562 730 q 382 562 457 571 l 419 685 q 339 728 372 693 q 307 810 307 763 q 345 899 307 861 q 434 937 385 937 q 523 899 485 937 q 562 810 562 861 z "},"":{"ha":405,"x_min":18,"x_max":388,"o":"m 353 463 q 308 568 353 523 q 203 614 262 614 q 97 568 142 614 q 52 463 52 522 q 97 357 52 403 q 203 313 142 313 q 308 357 262 313 q 353 463 353 403 m 388 463 q 333 333 388 388 q 203 278 278 278 q 73 333 127 278 q 18 463 18 388 q 73 593 18 538 q 203 648 127 648 q 333 593 278 648 q 388 463 388 538 z "},"":{"ha":521,"x_min":18,"x_max":503,"o":"m 469 1099 q 376 1068 423 1068 q 261 1096 337 1068 q 146 1124 185 1124 q 52 1091 95 1124 l 52 1031 q 146 1063 98 1063 q 259 1035 183 1063 q 373 1007 335 1007 q 469 1044 418 1007 l 469 1099 m 503 1025 q 373 972 433 972 q 259 1000 335 972 q 146 1028 183 1028 q 18 960 94 1028 l 18 1107 q 146 1158 77 1158 q 261 1131 185 1158 q 376 1103 337 1103 q 503 1171 427 1103 l 503 1025 z "},"":{"ha":839,"x_min":29,"x_max":810,"o":"m 681 463 l 681 572 l 604 463 l 528 572 l 528 463 l 398 463 l 398 701 l 279 701 l 279 463 l 148 463 l 148 701 l 29 701 l 29 810 l 528 810 l 604 701 l 681 810 l 810 810 l 810 463 l 681 463 z "},"":{"ha":984,"x_min":18,"x_max":1036,"o":"m 649 1135 l 492 1016 l 334 1135 l 224 1135 l 395 1007 l 589 1007 l 760 1135 l 649 1135 m 587 625 q 575 610 574 625 q 742 484 632 570 q 850 264 850 393 q 755 67 850 151 q 549 -10 665 -10 l 18 -10 l 18 301 l 373 301 q 385 317 385 301 q 323 360 353 339 q 262 403 292 381 q 170 500 200 452 q 133 645 133 559 q 224 849 133 762 q 434 937 315 937 l 1036 937 l 1036 903 l 434 903 q 248 825 330 903 q 168 645 168 748 q 233 475 168 547 q 280 432 250 456 q 354 380 311 409 q 419 317 419 340 q 406 282 419 298 q 373 267 393 267 l 52 267 l 52 23 l 549 23 q 732 92 649 23 q 816 264 816 163 q 624 532 816 412 q 593 552 611 540 q 553 582 576 564 q 541 610 541 595 q 544 629 541 620 q 554 645 548 637 q 569 656 561 652 q 587 660 577 660 l 1036 660 l 1036 625 l 587 625 m 601 972 l 383 972 l 120 1169 l 346 1169 l 492 1060 l 637 1169 l 863 1169 l 601 972 z "},"":{"ha":1661,"x_min":18,"x_max":1713,"o":"m 688 463 q 637 576 688 528 q 521 625 586 625 q 404 576 455 625 q 353 463 353 528 q 404 349 353 398 q 521 301 456 301 q 637 349 585 301 q 688 463 688 398 m 724 463 q 662 326 724 385 q 521 267 601 267 q 379 325 441 267 q 318 463 318 382 q 379 601 318 542 q 521 660 441 660 q 662 601 601 660 q 724 463 724 542 m 1065 625 l 1065 596 l 1412 596 l 1412 330 l 1065 330 l 1065 301 l 1643 301 l 1643 -10 l 694 -10 l 694 18 q 521 -10 608 -10 q 172 125 321 -10 q 18 463 18 265 q 172 801 18 661 q 521 937 321 937 q 694 907 606 937 l 694 937 l 1713 937 l 1713 903 l 729 903 l 729 858 q 521 903 619 903 q 195 777 334 903 q 52 463 52 648 q 195 149 52 278 q 521 23 334 23 q 729 68 621 23 l 729 23 l 1609 23 l 1609 267 l 1030 267 l 1030 365 l 1377 365 l 1377 562 l 1030 562 l 1030 660 l 1713 660 l 1713 625 l 1065 625 z "},"":{"ha":1146,"x_min":-51,"x_max":1137,"o":"m 492 1071 q 473 1115 492 1096 q 428 1135 453 1135 q 404 1129 416 1135 q 384 1115 393 1124 q 370 1095 375 1106 q 365 1071 365 1083 q 384 1026 365 1045 q 428 1007 403 1007 q 452 1012 441 1007 q 473 1026 464 1017 q 487 1046 481 1035 q 492 1071 492 1058 m 781 1071 q 762 1115 781 1096 q 718 1135 743 1135 q 673 1115 692 1135 q 654 1071 654 1096 q 659 1046 654 1058 q 673 1026 664 1035 q 693 1012 682 1017 q 718 1007 705 1007 q 742 1012 730 1007 q 762 1026 753 1017 q 776 1046 771 1035 q 781 1071 781 1058 m 758 286 l 758 -10 l 388 -10 l 388 286 l 190 625 l -51 625 l -51 660 l 211 660 l 422 295 l 422 23 l 724 23 l 724 295 l 1076 903 l 737 903 l 573 606 l 408 903 l -51 903 l -51 937 l 429 937 l 573 678 l 716 937 l 1137 937 l 758 286 m 527 1071 q 497 1002 527 1031 q 428 972 468 972 q 359 1002 388 972 q 330 1071 330 1031 q 359 1139 330 1110 q 428 1169 389 1169 q 497 1139 467 1169 q 527 1071 527 1109 m 816 1071 q 786 1002 816 1031 q 718 972 757 972 q 648 1002 677 972 q 619 1071 619 1031 q 648 1139 619 1110 q 718 1169 678 1169 q 786 1139 756 1169 q 816 1071 816 1109 z "}," ":{"ha":521,"x_min":0,"x_max":0,"o":""},"¡":{"ha":290,"x_min":16,"x_max":273,"o":"m 215 614 l 74 614 l 54 23 l 236 23 l 215 614 m 237 810 q 210 875 237 847 q 144 903 182 903 q 80 875 108 903 q 52 810 52 847 q 80 745 52 773 q 144 718 108 718 q 210 745 182 718 q 237 810 237 773 m 16 -10 l 41 648 l 248 648 l 273 -10 l 16 -10 m 272 810 q 233 721 272 760 q 144 683 195 683 q 56 721 94 683 q 18 810 18 761 q 56 899 18 861 q 144 937 94 937 q 233 899 195 937 q 272 810 272 861 z "},"¢":{"ha":926,"x_min":18,"x_max":909,"o":"m 874 267 l 521 267 q 379 325 441 267 q 318 463 318 382 q 379 601 318 542 q 521 660 441 660 l 874 660 l 874 903 l 602 903 l 602 1019 l 416 1019 l 416 891 q 160 739 260 849 q 52 463 52 619 q 160 187 52 306 q 416 35 260 75 l 416 -92 l 602 -92 l 602 23 l 874 23 l 874 267 m 637 -10 l 637 -126 l 382 -126 l 382 8 q 124 176 224 54 q 18 463 18 302 q 124 750 18 623 q 382 918 225 871 l 382 1053 l 637 1053 l 637 937 l 909 937 l 909 625 l 521 625 q 404 576 455 625 q 353 463 353 528 q 404 349 353 398 q 521 301 456 301 l 909 301 l 909 -10 l 637 -10 z "},"¥":{"ha":1146,"x_min":9,"x_max":1137,"o":"m 737 903 l 573 606 l 408 903 l 69 903 l 272 555 l 110 555 l 110 428 l 346 428 l 406 324 l 110 324 l 110 197 l 422 197 l 422 23 l 724 23 l 724 197 l 1036 197 l 1036 324 l 740 324 l 800 428 l 1036 428 l 1036 555 l 874 555 l 1076 903 l 737 903 m 934 590 l 1071 590 l 1071 393 l 821 393 l 800 359 l 1071 359 l 1071 162 l 758 162 l 758 -10 l 388 -10 l 388 162 l 75 162 l 75 359 l 346 359 l 326 393 l 75 393 l 75 590 l 212 590 l 9 937 l 429 937 l 573 678 l 716 937 l 1137 937 l 934 590 z "},"¨":{"ha":521,"x_min":18,"x_max":503,"o":"m 180 1071 q 160 1115 180 1095 q 116 1135 140 1135 q 71 1115 91 1135 q 52 1071 52 1096 q 57 1046 52 1058 q 71 1026 62 1035 q 92 1012 80 1017 q 116 1007 103 1007 q 160 1026 141 1007 q 180 1071 180 1046 m 469 1071 q 450 1115 469 1096 q 405 1135 430 1135 q 360 1115 380 1135 q 341 1071 341 1096 q 346 1046 341 1058 q 360 1026 351 1035 q 380 1012 369 1017 q 405 1007 392 1007 q 429 1012 418 1007 q 450 1026 441 1017 q 464 1046 458 1035 q 469 1071 469 1058 m 214 1071 q 184 1002 214 1031 q 116 972 155 972 q 47 1002 76 972 q 18 1071 18 1031 q 47 1139 18 1110 q 116 1169 77 1169 q 184 1139 155 1169 q 214 1071 214 1109 m 503 1071 q 473 1002 503 1031 q 405 972 444 972 q 336 1002 365 972 q 307 1071 307 1031 q 336 1139 307 1110 q 405 1169 366 1169 q 473 1139 444 1169 q 503 1071 503 1109 z "},"©":{"ha":845,"x_min":29,"x_max":816,"o":"m 408 290 q 275 338 336 290 q 213 463 213 390 q 275 588 213 536 q 408 637 334 637 l 539 637 l 539 528 l 408 528 q 355 509 380 528 q 331 463 331 491 q 355 416 331 435 q 408 398 380 398 l 539 398 l 539 290 l 408 290 m 701 463 q 617 657 701 574 q 422 741 534 741 q 228 657 311 741 q 144 463 144 574 q 228 269 144 352 q 422 185 311 185 q 617 269 534 185 q 701 463 701 352 m 816 463 q 699 186 816 303 q 422 69 582 69 q 146 186 262 69 q 29 463 29 302 q 146 739 29 623 q 422 857 263 857 q 699 739 581 857 q 816 463 816 622 z "},"­":{"ha":521,"x_min":18,"x_max":503,"o":"m 469 527 l 52 527 l 52 399 l 469 399 l 469 527 m 18 365 l 18 562 l 503 562 l 503 365 l 18 365 z "},"®":{"ha":845,"x_min":29,"x_max":816,"o":"m 465 515 q 440 542 465 542 l 357 542 l 357 488 l 440 488 q 465 515 465 488 m 505 290 q 421 326 463 290 q 357 393 406 338 l 357 290 l 227 290 l 227 637 l 475 637 q 559 602 524 637 q 596 519 596 567 q 521 412 596 441 q 544 398 529 398 l 618 398 l 618 290 l 505 290 m 701 463 q 617 657 701 574 q 422 741 534 741 q 228 657 311 741 q 144 463 144 574 q 228 269 144 352 q 422 185 311 185 q 617 269 534 185 q 701 463 701 352 m 816 463 q 699 186 816 303 q 422 69 582 69 q 146 186 262 69 q 29 463 29 302 q 146 739 29 623 q 422 857 263 857 q 699 739 581 857 q 816 463 816 622 z "},"°":{"ha":318,"x_min":18,"x_max":301,"o":"m 208 795 q 204 814 208 805 q 193 830 200 823 q 178 841 186 837 q 159 845 169 845 q 140 841 149 845 q 124 830 131 837 q 113 814 117 823 q 109 795 109 805 q 113 776 109 785 q 124 760 117 767 q 140 749 131 753 q 159 745 149 745 q 193 760 178 745 q 208 795 208 775 m 243 795 q 217 736 243 762 q 159 711 192 711 q 99 736 124 711 q 74 795 74 761 q 99 854 74 829 q 159 880 125 880 q 217 854 191 880 q 243 795 243 828 m 267 795 q 234 870 267 838 q 159 903 201 903 q 84 870 115 903 q 52 795 52 838 q 84 720 52 752 q 159 688 116 688 q 234 720 200 688 q 267 795 267 751 m 301 795 q 258 696 301 739 q 159 654 214 654 q 60 696 102 654 q 18 795 18 740 q 60 895 18 850 q 159 937 101 937 q 258 895 215 937 q 301 795 301 852 z "},"±":{"ha":521,"x_min":18,"x_max":503,"o":"m 469 151 l 52 151 l 52 23 l 469 23 l 469 151 m 469 527 l 324 527 l 324 671 l 197 671 l 197 527 l 52 527 l 52 399 l 197 399 l 197 254 l 324 254 l 324 399 l 469 399 l 469 527 m 18 -10 l 18 185 l 503 185 l 503 -10 l 18 -10 m 359 365 l 359 220 l 162 220 l 162 365 l 18 365 l 18 562 l 162 562 l 162 706 l 359 706 l 359 562 l 503 562 l 503 365 l 359 365 z "},"´":{"ha":578,"x_min":18,"x_max":575,"o":"m 428 1131 l 126 1019 l 499 1059 l 428 1131 m 18 971 l 18 1015 l 437 1170 l 575 1034 l 18 971 z "},"¶":{"ha":1042,"x_min":29,"x_max":1013,"o":"m 932 671 l 932 0 l 701 0 l 701 671 l 585 671 l 585 0 l 353 0 l 353 278 q 127 376 223 280 q 29 602 29 473 q 127 827 29 729 q 353 926 226 926 l 1013 926 l 1013 671 l 932 671 z "},"¼":{"ha":1040,"x_min":12,"x_max":1023,"o":"m 226 903 l 102 903 l 65 816 l 110 816 l 110 486 l 226 486 l 226 903 m 494 909 l 192 81 l 367 18 l 669 845 l 494 909 m 988 197 l 960 197 l 960 428 l 844 428 l 844 197 l 686 197 l 718 370 l 597 370 l 547 98 l 844 98 l 844 12 l 960 12 l 960 98 l 988 98 l 988 197 m 75 452 l 75 781 l 12 781 l 79 937 l 260 937 l 260 452 l 75 452 m 388 -26 l 148 60 l 473 953 l 713 866 l 388 -26 m 994 64 l 994 -22 l 809 -22 l 809 64 l 506 64 l 567 405 l 760 405 l 728 231 l 809 231 l 809 463 l 994 463 l 994 231 l 1023 231 l 1023 64 l 994 64 z "},"½":{"ha":1099,"x_min":12,"x_max":1081,"o":"m 226 903 l 102 903 l 65 816 l 110 816 l 110 486 l 226 486 l 226 903 m 494 909 l 192 81 l 367 18 l 669 845 l 494 909 m 1046 110 l 711 110 l 711 142 q 751 193 711 193 l 925 193 q 1010 230 973 193 q 1046 316 1046 267 q 1010 402 1046 364 q 925 440 973 440 l 629 440 l 629 353 l 896 353 q 925 340 913 353 q 937 309 937 326 q 924 281 937 293 q 896 269 912 269 l 722 269 q 637 231 673 269 q 601 146 601 193 l 601 23 l 1046 23 l 1046 110 m 75 452 l 75 781 l 12 781 l 79 937 l 260 937 l 260 452 l 75 452 m 388 -26 l 148 60 l 473 953 l 713 866 l 388 -26 m 566 -10 l 566 146 q 614 255 566 208 q 722 303 662 303 l 896 303 q 901 309 901 303 q 896 318 901 318 l 595 318 l 595 475 l 925 475 q 1034 427 987 475 q 1081 316 1081 378 q 1034 206 1081 254 q 925 159 986 159 l 749 159 l 745 144 l 1081 144 l 1081 -10 l 566 -10 z "},"¾":{"ha":1249,"x_min":18,"x_max":1232,"o":"m 469 608 q 434 694 469 648 q 469 780 469 738 q 433 866 469 830 q 347 903 397 903 l 52 903 l 52 816 l 318 816 q 347 803 334 816 q 359 773 359 789 q 347 745 359 757 q 318 732 334 732 l 168 732 l 168 657 l 318 657 q 347 644 334 657 q 359 614 359 631 q 347 586 359 598 q 318 573 334 573 l 52 573 l 52 486 l 347 486 q 432 522 396 486 q 469 608 469 559 m 691 909 l 389 81 l 564 18 l 866 845 l 691 909 m 1197 208 l 1168 208 l 1168 440 l 1052 440 l 1052 208 l 895 208 l 926 382 l 806 382 l 755 110 l 1052 110 l 1052 23 l 1168 23 l 1168 110 l 1197 110 l 1197 208 m 503 608 q 456 498 503 545 q 347 452 410 452 l 18 452 l 18 608 l 318 608 q 324 614 324 608 q 318 623 324 621 l 133 623 l 133 768 l 318 768 q 324 773 324 768 q 318 781 324 779 l 18 781 l 18 937 l 347 937 q 457 890 411 937 q 503 780 503 842 q 477 694 503 735 q 503 608 503 654 m 585 -26 l 345 60 l 670 953 l 909 866 l 585 -26 m 1202 75 l 1202 -10 l 1017 -10 l 1017 75 l 714 75 l 775 416 l 968 416 l 937 243 l 1017 243 l 1017 475 l 1202 475 l 1202 243 l 1232 243 l 1232 75 l 1202 75 z "},"¿":{"ha":868,"x_min":18,"x_max":850,"o":"m 816 243 l 376 243 q 354 248 364 243 q 335 262 343 254 q 322 283 327 271 q 318 307 318 294 q 323 329 318 318 q 336 347 328 339 q 354 360 344 355 q 376 365 365 365 l 550 365 q 735 448 656 365 q 816 637 814 529 l 629 637 q 609 586 626 606 q 562 562 589 562 l 318 562 q 132 479 212 562 q 52 293 52 399 q 132 105 52 187 q 318 23 212 23 l 816 23 l 816 243 m 816 810 q 788 875 816 847 q 724 903 760 903 q 659 875 686 903 q 631 810 631 847 q 659 745 631 773 q 724 718 686 718 q 788 745 760 718 q 816 810 816 773 m 318 -10 q 109 81 199 -10 q 18 293 18 174 q 109 504 18 411 q 318 596 199 596 l 562 596 q 596 671 599 596 l 850 671 l 850 633 q 760 422 850 515 q 550 330 669 330 l 376 330 q 353 307 353 330 q 376 278 353 278 l 850 278 l 850 -10 l 318 -10 m 850 810 q 812 721 850 761 q 724 683 774 683 q 634 721 674 683 q 596 810 596 761 q 634 899 596 861 q 724 937 674 937 q 812 899 774 937 q 850 810 850 861 z "},"À":{"ha":1099,"x_min":-51,"x_max":1086,"o":"m 550 570 l 494 359 l 606 359 l 550 570 m 295 1131 l 224 1059 q 320 1048 261 1055 q 460 1030 378 1041 q 637 1004 519 1023 l 295 1131 m 703 -10 l 673 104 l 427 104 l 397 -10 l 14 -10 l 180 625 l -51 625 l -51 660 l 224 660 l 58 23 l 369 23 l 399 139 l 701 139 l 730 23 l 1042 23 l 809 903 l -51 903 l -51 937 l 837 937 l 1086 -10 l 703 -10 m 450 324 l 550 709 l 649 324 l 450 324 m 148 1034 l 286 1170 l 706 1015 l 706 971 l 148 1034 z "},"Á":{"ha":1099,"x_min":-51,"x_max":1086,"o":"m 550 570 l 494 359 l 606 359 l 550 570 m 804 1131 l 503 1019 l 875 1059 l 804 1131 m 703 -10 l 673 104 l 427 104 l 397 -10 l 14 -10 l 180 625 l -51 625 l -51 660 l 224 660 l 58 23 l 369 23 l 399 139 l 701 139 l 730 23 l 1042 23 l 809 903 l -51 903 l -51 937 l 837 937 l 1086 -10 l 703 -10 m 450 324 l 550 709 l 649 324 l 450 324 m 393 971 l 393 1015 l 814 1170 l 951 1034 l 393 971 z "},"Â":{"ha":1099,"x_min":-51,"x_max":1086,"o":"m 550 570 l 494 359 l 606 359 l 550 570 m 647 1135 l 452 1135 l 282 1007 l 393 1007 l 550 1125 l 707 1007 l 817 1007 l 647 1135 m 703 -10 l 673 104 l 427 104 l 397 -10 l 14 -10 l 180 625 l -51 625 l -51 660 l 224 660 l 58 23 l 369 23 l 399 139 l 701 139 l 730 23 l 1042 23 l 809 903 l -51 903 l -51 937 l 837 937 l 1086 -10 l 703 -10 m 450 324 l 550 709 l 649 324 l 450 324 m 696 972 l 550 1081 l 404 972 l 178 972 l 441 1169 l 659 1169 l 922 972 l 696 972 z "},"Ã":{"ha":1099,"x_min":-51,"x_max":1086,"o":"m 550 570 l 494 359 l 606 359 l 550 570 m 758 1099 q 665 1068 713 1068 q 550 1096 627 1068 q 435 1124 474 1124 q 341 1091 385 1124 l 341 1031 q 435 1063 387 1063 q 549 1035 473 1063 q 662 1007 625 1007 q 758 1044 707 1007 l 758 1099 m 703 -10 l 673 104 l 427 104 l 397 -10 l 14 -10 l 180 625 l -51 625 l -51 660 l 224 660 l 58 23 l 369 23 l 399 139 l 701 139 l 730 23 l 1042 23 l 809 903 l -51 903 l -51 937 l 837 937 l 1086 -10 l 703 -10 m 450 324 l 550 709 l 649 324 l 450 324 m 793 1025 q 662 972 722 972 q 549 1000 625 972 q 435 1028 473 1028 q 307 960 383 1028 l 307 1107 q 435 1158 366 1158 q 550 1131 474 1158 q 665 1103 627 1103 q 793 1171 716 1103 l 793 1025 z "},"Ä":{"ha":1099,"x_min":-51,"x_max":1086,"o":"m 550 570 l 494 359 l 606 359 l 550 570 m 469 1071 q 450 1115 469 1096 q 405 1135 430 1135 q 360 1115 380 1135 q 341 1071 341 1096 q 346 1046 341 1058 q 360 1026 351 1035 q 380 1012 369 1017 q 405 1007 392 1007 q 429 1012 418 1007 q 450 1026 441 1017 q 464 1046 458 1035 q 469 1071 469 1058 m 758 1071 q 739 1115 758 1096 q 694 1135 720 1135 q 650 1115 669 1135 q 631 1071 631 1096 q 636 1046 631 1058 q 650 1026 641 1035 q 670 1012 659 1017 q 694 1007 682 1007 q 719 1012 707 1007 q 739 1026 730 1017 q 753 1046 748 1035 q 758 1071 758 1058 m 703 -10 l 673 104 l 427 104 l 397 -10 l 14 -10 l 180 625 l -51 625 l -51 660 l 224 660 l 58 23 l 369 23 l 399 139 l 701 139 l 730 23 l 1042 23 l 809 903 l -51 903 l -51 937 l 837 937 l 1086 -10 l 703 -10 m 450 324 l 550 709 l 649 324 l 450 324 m 503 1071 q 473 1002 503 1031 q 405 972 444 972 q 336 1002 365 972 q 307 1071 307 1031 q 336 1139 307 1110 q 405 1169 366 1169 q 473 1139 444 1169 q 503 1071 503 1109 m 793 1071 q 763 1002 793 1031 q 694 972 734 972 q 625 1002 654 972 q 596 1071 596 1031 q 625 1139 596 1110 q 694 1169 655 1169 q 763 1139 733 1169 q 793 1071 793 1109 z "},"Å":{"ha":1099,"x_min":-51,"x_max":1086,"o":"m 550 570 l 494 359 l 606 359 l 550 570 m 590 1071 q 578 1099 590 1087 q 550 1111 566 1111 q 522 1099 534 1111 q 509 1071 509 1087 q 550 1030 509 1030 q 578 1042 566 1030 q 590 1071 590 1055 m 703 -10 l 673 104 l 427 104 l 397 -10 l 14 -10 l 180 625 l -51 625 l -51 660 l 224 660 l 58 23 l 369 23 l 399 139 l 701 139 l 730 23 l 1042 23 l 809 903 l -51 903 l -51 937 l 837 937 l 1086 -10 l 703 -10 m 450 324 l 550 709 l 649 324 l 450 324 m 637 1071 q 610 1010 637 1035 q 550 984 585 984 q 489 1010 515 984 q 463 1071 463 1036 q 489 1131 463 1105 q 550 1158 514 1158 q 610 1131 585 1158 q 637 1071 637 1105 z "},"Æ":{"ha":1667,"x_min":9,"x_max":1649,"o":"m 701 570 l 576 336 l 701 336 l 701 570 m 519 301 l 735 709 l 735 301 l 519 301 m 1615 267 l 1036 267 l 1036 365 l 1383 365 l 1383 562 l 1036 562 l 1036 660 l 1615 660 l 1615 903 l 524 903 l 67 23 l 374 23 l 434 139 l 735 139 l 735 23 l 1615 23 l 1615 267 m 701 -10 l 701 104 l 455 104 l 395 -10 l 9 -10 l 503 937 l 1649 937 l 1649 625 l 1071 625 l 1071 596 l 1418 596 l 1418 330 l 1071 330 l 1071 301 l 1649 301 l 1649 -10 l 701 -10 z "},"È":{"ha":984,"x_min":-51,"x_max":966,"o":"m 237 1131 l 167 1059 q 262 1048 203 1055 q 403 1030 321 1041 q 580 1004 462 1023 l 237 1131 m 18 -10 l 18 625 l -51 625 l -51 660 l 52 660 l 52 23 l 932 23 l 932 267 l 353 267 l 353 365 l 701 365 l 701 562 l 353 562 l 353 660 l 932 660 l 932 903 l -51 903 l -51 937 l 966 937 l 966 625 l 388 625 l 388 596 l 735 596 l 735 330 l 388 330 l 388 301 l 966 301 l 966 -10 l 18 -10 m 90 1034 l 228 1170 l 648 1015 l 648 971 l 90 1034 z "},"É":{"ha":984,"x_min":-51,"x_max":966,"o":"m 747 1131 l 444 1019 l 817 1059 l 747 1131 m 18 -10 l 18 625 l -51 625 l -51 660 l 52 660 l 52 23 l 932 23 l 932 267 l 353 267 l 353 365 l 701 365 l 701 562 l 353 562 l 353 660 l 932 660 l 932 903 l -51 903 l -51 937 l 966 937 l 966 625 l 388 625 l 388 596 l 735 596 l 735 330 l 388 330 l 388 301 l 966 301 l 966 -10 l 18 -10 m 336 971 l 336 1015 l 755 1170 l 894 1034 l 336 971 z "},"Ê":{"ha":984,"x_min":-51,"x_max":966,"o":"m 589 1135 l 395 1135 l 224 1007 l 334 1007 l 492 1125 l 649 1007 l 760 1007 l 589 1135 m 18 -10 l 18 625 l -51 625 l -51 660 l 52 660 l 52 23 l 932 23 l 932 267 l 353 267 l 353 365 l 701 365 l 701 562 l 353 562 l 353 660 l 932 660 l 932 903 l -51 903 l -51 937 l 966 937 l 966 625 l 388 625 l 388 596 l 735 596 l 735 330 l 388 330 l 388 301 l 966 301 l 966 -10 l 18 -10 m 637 972 l 492 1081 l 346 972 l 120 972 l 383 1169 l 601 1169 l 863 972 l 637 972 z "},"Ë":{"ha":984,"x_min":-51,"x_max":966,"o":"m 411 1071 q 392 1115 411 1096 q 347 1135 372 1135 q 302 1115 322 1135 q 283 1071 283 1096 q 289 1046 283 1058 q 302 1026 294 1035 q 323 1012 311 1017 q 347 1007 334 1007 q 372 1012 360 1007 q 392 1026 383 1017 q 406 1046 401 1035 q 411 1071 411 1058 m 701 1071 q 681 1115 701 1095 q 637 1135 661 1135 q 592 1115 612 1135 q 573 1071 573 1096 q 578 1046 573 1058 q 592 1026 583 1035 q 612 1012 601 1017 q 637 1007 624 1007 q 681 1026 662 1007 q 701 1071 701 1046 m 18 -10 l 18 625 l -51 625 l -51 660 l 52 660 l 52 23 l 932 23 l 932 267 l 353 267 l 353 365 l 701 365 l 701 562 l 353 562 l 353 660 l 932 660 l 932 903 l -51 903 l -51 937 l 966 937 l 966 625 l 388 625 l 388 596 l 735 596 l 735 330 l 388 330 l 388 301 l 966 301 l 966 -10 l 18 -10 m 446 1071 q 416 1002 446 1031 q 347 972 387 972 q 278 1002 307 972 q 249 1071 249 1031 q 278 1139 249 1110 q 347 1169 308 1169 q 416 1139 386 1169 q 446 1071 446 1109 m 735 1071 q 705 1002 735 1031 q 637 972 676 972 q 568 1002 597 972 q 538 1071 538 1031 q 568 1139 538 1110 q 637 1169 597 1169 q 705 1139 675 1169 q 735 1071 735 1109 z "},"Ì":{"ha":405,"x_min":-198,"x_max":388,"o":"m -51 1131 l -121 1059 q -27 1048 -85 1055 q 113 1030 31 1041 q 290 1004 172 1023 l -51 1131 m 18 -10 l 18 625 l -51 625 l -51 660 l 52 660 l 52 23 l 353 23 l 353 903 l -51 903 l -51 937 l 388 937 l 388 -10 l 18 -10 m -198 1034 l -60 1170 l 359 1015 l 359 971 l -198 1034 z "},"Í":{"ha":405,"x_min":-51,"x_max":604,"o":"m 457 1131 l 155 1019 l 528 1059 l 457 1131 m 18 -10 l 18 625 l -51 625 l -51 660 l 52 660 l 52 23 l 353 23 l 353 903 l -51 903 l -51 937 l 388 937 l 388 -10 l 18 -10 m 46 971 l 46 1015 l 467 1170 l 604 1034 l 46 971 z "},"Î":{"ha":405,"x_min":-168,"x_max":574,"o":"m 300 1135 l 105 1135 l -64 1007 l 45 1007 l 203 1125 l 360 1007 l 470 1007 l 300 1135 m 18 -10 l 18 625 l -51 625 l -51 660 l 52 660 l 52 23 l 353 23 l 353 903 l -51 903 l -51 937 l 388 937 l 388 -10 l 18 -10 m 349 972 l 203 1081 l 57 972 l -168 972 l 94 1169 l 311 1169 l 574 972 l 349 972 z "},"Ï":{"ha":405,"x_min":-51,"x_max":446,"o":"m 121 1071 q 102 1115 121 1096 q 58 1135 83 1135 q 34 1129 45 1135 q 14 1115 22 1124 q 0 1095 5 1106 q -5 1071 -5 1083 q 14 1026 -5 1045 q 58 1007 33 1007 q 82 1012 71 1007 q 102 1026 94 1017 q 116 1046 111 1035 q 121 1071 121 1058 m 411 1071 q 392 1115 411 1096 q 347 1135 372 1135 q 302 1115 322 1135 q 283 1071 283 1096 q 289 1046 283 1058 q 302 1026 294 1035 q 323 1012 311 1017 q 347 1007 334 1007 q 372 1012 360 1007 q 392 1026 383 1017 q 406 1046 401 1035 q 411 1071 411 1058 m 18 -10 l 18 625 l -51 625 l -51 660 l 52 660 l 52 23 l 353 23 l 353 903 l -51 903 l -51 937 l 388 937 l 388 -10 l 18 -10 m 156 1071 q 126 1002 156 1031 q 58 972 97 972 q -10 1002 18 972 q -39 1071 -39 1031 q -10 1139 -39 1110 q 58 1169 18 1169 q 126 1139 96 1169 q 156 1071 156 1109 m 446 1071 q 416 1002 446 1031 q 347 972 387 972 q 278 1002 307 972 q 249 1071 249 1031 q 278 1139 249 1110 q 347 1169 308 1169 q 416 1139 386 1169 q 446 1071 446 1109 z "},"Ñ":{"ha":1042,"x_min":-51,"x_max":1024,"o":"m 729 1099 q 637 1068 684 1068 q 522 1096 597 1068 q 406 1124 446 1124 q 313 1091 355 1124 l 313 1031 q 406 1063 358 1063 q 519 1035 444 1063 q 633 1007 595 1007 q 729 1044 678 1007 l 729 1099 m 660 -10 l 388 337 l 388 -10 l 18 -10 l 18 625 l -51 625 l -51 660 l 52 660 l 52 23 l 353 23 l 353 439 l 676 23 l 989 23 l 989 903 l 688 903 l 688 488 l 366 903 l -51 903 l -51 937 l 382 937 l 654 589 l 654 937 l 1024 937 l 1024 -10 l 660 -10 m 764 1025 q 633 972 693 972 q 519 1000 595 972 q 406 1028 444 1028 q 278 960 355 1028 l 278 1107 q 406 1158 338 1158 q 522 1131 446 1158 q 637 1103 597 1103 q 764 1171 687 1103 l 764 1025 z "},"Ò":{"ha":1042,"x_min":18,"x_max":1024,"o":"m 688 463 q 637 576 688 528 q 521 625 587 625 q 404 576 455 625 q 353 463 353 528 q 404 349 353 398 q 521 301 456 301 q 637 349 585 301 q 688 463 688 398 m 724 463 q 662 326 724 385 q 521 267 601 267 q 379 325 441 267 q 318 463 318 382 q 379 601 318 542 q 521 660 441 660 q 662 601 601 660 q 724 463 724 542 m 989 463 q 846 777 989 648 q 521 903 707 903 q 195 777 334 903 q 52 463 52 648 q 195 149 52 278 q 521 23 334 23 q 846 149 707 23 q 989 463 989 278 m 267 1131 l 195 1059 q 291 1048 232 1055 q 432 1030 350 1041 q 609 1004 491 1023 l 267 1131 m 1024 463 q 870 125 1024 265 q 521 -10 721 -10 q 172 125 321 -10 q 18 463 18 265 q 172 801 18 661 q 521 937 321 937 q 870 801 720 937 q 1024 463 1024 661 m 119 1034 l 257 1170 l 677 1015 l 677 971 l 119 1034 z "},"Ó":{"ha":1042,"x_min":18,"x_max":1024,"o":"m 688 463 q 637 576 688 528 q 521 625 587 625 q 404 576 455 625 q 353 463 353 528 q 404 349 353 398 q 521 301 456 301 q 637 349 585 301 q 688 463 688 398 m 724 463 q 662 326 724 385 q 521 267 601 267 q 379 325 441 267 q 318 463 318 382 q 379 601 318 542 q 521 660 441 660 q 662 601 601 660 q 724 463 724 542 m 989 463 q 846 777 989 648 q 521 903 707 903 q 195 777 334 903 q 52 463 52 648 q 195 149 52 278 q 521 23 334 23 q 846 149 707 23 q 989 463 989 278 m 775 1131 l 473 1019 l 846 1059 l 775 1131 m 1024 463 q 870 125 1024 265 q 521 -10 721 -10 q 172 125 321 -10 q 18 463 18 265 q 172 801 18 661 q 521 937 321 937 q 870 801 720 937 q 1024 463 1024 661 m 365 971 l 365 1015 l 785 1170 l 922 1034 l 365 971 z "},"Ô":{"ha":1042,"x_min":18,"x_max":1024,"o":"m 688 463 q 637 576 688 528 q 521 625 586 625 q 404 576 455 625 q 353 463 353 528 q 404 349 353 398 q 521 301 456 301 q 637 349 585 301 q 688 463 688 398 m 724 463 q 662 326 724 385 q 521 267 601 267 q 379 325 441 267 q 318 463 318 382 q 379 601 318 542 q 521 660 441 660 q 662 601 601 660 q 724 463 724 542 m 989 463 q 846 777 989 648 q 521 903 707 903 q 195 777 334 903 q 52 463 52 648 q 195 149 52 278 q 521 23 334 23 q 846 149 707 23 q 989 463 989 278 m 618 1135 l 424 1135 l 254 1007 l 363 1007 l 521 1125 l 678 1007 l 788 1007 l 618 1135 m 1024 463 q 870 125 1024 265 q 521 -10 721 -10 q 172 125 321 -10 q 18 463 18 265 q 172 801 18 661 q 521 937 321 937 q 870 801 720 937 q 1024 463 1024 661 m 667 972 l 521 1081 l 375 972 l 149 972 l 412 1169 l 629 1169 l 892 972 l 667 972 z "},"Õ":{"ha":1042,"x_min":18,"x_max":1024,"o":"m 688 463 q 637 576 688 528 q 521 625 587 625 q 404 576 455 625 q 353 463 353 528 q 404 349 353 398 q 521 301 456 301 q 637 349 585 301 q 688 463 688 398 m 724 463 q 662 326 724 385 q 521 267 601 267 q 379 325 441 267 q 318 463 318 382 q 379 601 318 542 q 521 660 441 660 q 662 601 601 660 q 724 463 724 542 m 989 463 q 846 777 989 648 q 521 903 707 903 q 195 777 334 903 q 52 463 52 648 q 195 149 52 278 q 521 23 334 23 q 846 149 707 23 q 989 463 989 278 m 729 1099 q 637 1068 684 1068 q 522 1096 597 1068 q 406 1124 446 1124 q 313 1091 355 1124 l 313 1031 q 406 1063 358 1063 q 519 1035 444 1063 q 633 1007 595 1007 q 729 1044 678 1007 l 729 1099 m 1024 463 q 870 125 1024 265 q 521 -10 721 -10 q 172 125 321 -10 q 18 463 18 265 q 172 801 18 661 q 521 937 321 937 q 870 801 720 937 q 1024 463 1024 661 m 764 1025 q 633 972 693 972 q 519 1000 595 972 q 406 1028 444 1028 q 278 960 355 1028 l 278 1107 q 406 1158 338 1158 q 522 1131 446 1158 q 637 1103 597 1103 q 764 1171 687 1103 l 764 1025 z "},"Ö":{"ha":1042,"x_min":18,"x_max":1024,"o":"m 688 463 q 637 576 688 528 q 521 625 587 625 q 404 576 455 625 q 353 463 353 528 q 404 349 353 398 q 521 301 456 301 q 637 349 585 301 q 688 463 688 398 m 724 463 q 662 326 724 385 q 521 267 601 267 q 379 325 441 267 q 318 463 318 382 q 379 601 318 542 q 521 660 441 660 q 662 601 601 660 q 724 463 724 542 m 989 463 q 846 777 989 648 q 521 903 707 903 q 195 777 334 903 q 52 463 52 648 q 195 149 52 278 q 521 23 334 23 q 846 149 707 23 q 989 463 989 278 m 440 1071 q 420 1115 440 1095 q 376 1135 401 1135 q 332 1115 351 1135 q 313 1071 313 1096 q 318 1046 313 1058 q 332 1026 323 1035 q 352 1012 340 1017 q 376 1007 363 1007 q 420 1026 401 1007 q 440 1071 440 1046 m 729 1071 q 710 1115 729 1096 q 665 1135 690 1135 q 621 1115 640 1135 q 602 1071 602 1096 q 607 1046 602 1058 q 621 1026 612 1035 q 641 1012 629 1017 q 665 1007 652 1007 q 690 1012 678 1007 q 710 1026 701 1017 q 724 1046 719 1035 q 729 1071 729 1058 m 1024 463 q 870 125 1024 265 q 521 -10 721 -10 q 172 125 321 -10 q 18 463 18 265 q 172 801 18 661 q 521 937 321 937 q 870 801 720 937 q 1024 463 1024 661 m 475 1071 q 445 1002 475 1031 q 376 972 416 972 q 307 1002 336 972 q 278 1071 278 1031 q 307 1139 278 1110 q 376 1169 337 1169 q 445 1139 415 1169 q 475 1071 475 1109 m 764 1071 q 734 1002 764 1031 q 665 972 705 972 q 596 1002 625 972 q 567 1071 567 1031 q 596 1139 567 1110 q 665 1169 626 1169 q 734 1139 704 1169 q 764 1071 764 1109 z "},"×":{"ha":507,"x_min":13,"x_max":494,"o":"m 344 463 l 446 565 l 355 655 l 254 553 l 152 655 l 61 565 l 163 463 l 61 361 l 152 271 l 254 373 l 355 271 l 446 361 l 344 463 m 355 222 l 254 324 l 152 222 l 13 361 l 115 463 l 13 565 l 152 704 l 254 602 l 355 704 l 494 565 l 393 463 l 494 361 l 355 222 z "},"Ø":{"ha":1042,"x_min":-46,"x_max":1089,"o":"m 543 624 q 532 625 537 625 q 521 625 526 625 q 404 576 455 625 q 353 463 353 528 q 354 450 353 456 q 357 437 355 444 l 543 624 m 688 463 q 687 475 688 469 q 685 488 686 481 l 499 302 q 505 301 502 301 q 510 301 507 301 l 521 301 q 637 349 585 301 q 688 463 688 398 m 339 372 q 318 463 318 428 q 379 601 318 542 q 521 660 441 660 q 611 644 557 660 l 339 372 m 724 463 q 662 326 724 385 q 521 267 601 267 q 431 282 487 267 l 703 554 q 724 463 724 495 m 950 983 l 789 822 q 521 903 658 903 q 195 777 334 903 q 52 463 52 648 q 156 189 52 317 l 1 33 l 92 -56 l 252 104 q 521 23 383 23 q 846 149 707 23 q 989 463 989 278 q 886 737 989 608 l 1040 892 l 950 983 m 932 735 q 1024 463 1024 610 q 870 125 1024 265 q 521 -10 721 -10 q 257 60 382 -10 l 92 -104 l -46 33 l 110 191 q 18 463 18 316 q 172 801 18 661 q 521 937 321 937 q 785 866 659 937 l 950 1031 l 1089 892 l 932 735 z "},"Ù":{"ha":1042,"x_min":-51,"x_max":1024,"o":"m 267 1131 l 195 1059 q 291 1048 232 1055 q 432 1030 350 1041 q 609 1004 491 1023 l 267 1131 m 1024 463 q 870 125 1024 265 q 521 -10 721 -10 q 172 125 321 -10 q 18 463 18 265 l 18 625 l -51 625 l -51 660 l 52 660 l 52 463 q 195 149 52 278 q 521 23 334 23 q 846 149 707 23 q 989 463 989 278 l 989 903 l 724 903 l 724 463 q 662 326 724 385 q 521 267 601 267 q 379 325 441 267 q 318 463 318 382 l 318 903 l -51 903 l -51 937 l 353 937 l 353 463 q 404 349 353 398 q 521 301 456 301 q 637 349 585 301 q 688 463 688 398 l 688 937 l 1024 937 l 1024 463 m 119 1034 l 257 1170 l 677 1015 l 677 971 l 119 1034 z "},"Ú":{"ha":1042,"x_min":-51,"x_max":1024,"o":"m 775 1131 l 473 1019 l 846 1059 l 775 1131 m 1024 463 q 870 125 1024 265 q 521 -10 721 -10 q 172 125 321 -10 q 18 463 18 265 l 18 625 l -51 625 l -51 660 l 52 660 l 52 463 q 195 149 52 278 q 521 23 334 23 q 846 149 707 23 q 989 463 989 278 l 989 903 l 724 903 l 724 463 q 662 326 724 385 q 521 267 601 267 q 379 325 441 267 q 318 463 318 382 l 318 903 l -51 903 l -51 937 l 353 937 l 353 463 q 404 349 353 398 q 521 301 456 301 q 637 349 585 301 q 688 463 688 398 l 688 937 l 1024 937 l 1024 463 m 365 971 l 365 1015 l 785 1170 l 922 1034 l 365 971 z "},"Û":{"ha":1042,"x_min":-51,"x_max":1024,"o":"m 618 1135 l 424 1135 l 254 1007 l 363 1007 l 521 1125 l 678 1007 l 788 1007 l 618 1135 m 1024 463 q 870 125 1024 265 q 521 -10 721 -10 q 172 125 321 -10 q 18 463 18 265 l 18 625 l -51 625 l -51 660 l 52 660 l 52 463 q 195 149 52 278 q 521 23 334 23 q 846 149 707 23 q 989 463 989 278 l 989 903 l 724 903 l 724 463 q 662 326 724 385 q 521 267 601 267 q 379 325 441 267 q 318 463 318 382 l 318 903 l -51 903 l -51 937 l 353 937 l 353 463 q 404 349 353 398 q 521 301 456 301 q 637 349 585 301 q 688 463 688 398 l 688 937 l 1024 937 l 1024 463 m 667 972 l 521 1081 l 375 972 l 149 972 l 412 1169 l 629 1169 l 892 972 l 667 972 z "},"Ü":{"ha":1042,"x_min":-51,"x_max":1024,"o":"m 440 1071 q 420 1115 440 1095 q 376 1135 401 1135 q 332 1115 351 1135 q 313 1071 313 1096 q 318 1046 313 1058 q 332 1026 323 1035 q 352 1012 340 1017 q 376 1007 363 1007 q 420 1026 401 1007 q 440 1071 440 1046 m 729 1071 q 710 1115 729 1096 q 665 1135 690 1135 q 621 1115 640 1135 q 602 1071 602 1096 q 607 1046 602 1058 q 621 1026 612 1035 q 641 1012 629 1017 q 665 1007 652 1007 q 690 1012 678 1007 q 710 1026 701 1017 q 724 1046 719 1035 q 729 1071 729 1058 m 1024 463 q 870 125 1024 265 q 521 -10 721 -10 q 172 125 321 -10 q 18 463 18 265 l 18 625 l -51 625 l -51 660 l 52 660 l 52 463 q 195 149 52 278 q 521 23 334 23 q 846 149 707 23 q 989 463 989 278 l 989 903 l 724 903 l 724 463 q 662 326 724 385 q 521 267 601 267 q 379 325 441 267 q 318 463 318 382 l 318 903 l -51 903 l -51 937 l 353 937 l 353 463 q 404 349 353 398 q 521 301 456 301 q 637 349 585 301 q 688 463 688 398 l 688 937 l 1024 937 l 1024 463 m 475 1071 q 445 1002 475 1031 q 376 972 416 972 q 307 1002 336 972 q 278 1071 278 1031 q 307 1139 278 1110 q 376 1169 337 1169 q 445 1139 415 1169 q 475 1071 475 1109 m 764 1071 q 734 1002 764 1031 q 665 972 705 972 q 596 1002 625 972 q 567 1071 567 1031 q 596 1139 567 1110 q 665 1169 626 1169 q 734 1139 704 1169 q 764 1071 764 1109 z "},"Ý":{"ha":1146,"x_min":-51,"x_max":1137,"o":"m 827 1131 l 526 1019 l 898 1059 l 827 1131 m 758 286 l 758 -10 l 388 -10 l 388 286 l 190 625 l -51 625 l -51 660 l 211 660 l 422 295 l 422 23 l 724 23 l 724 295 l 1076 903 l 737 903 l 573 606 l 408 903 l -51 903 l -51 937 l 429 937 l 573 678 l 716 937 l 1137 937 l 758 286 m 416 971 l 416 1015 l 837 1170 l 975 1034 l 416 971 z "},"à":{"ha":1099,"x_min":14,"x_max":1152,"o":"m 550 570 l 494 359 l 606 359 l 550 570 m 295 1131 l 224 1059 q 320 1048 261 1055 q 460 1030 378 1041 q 637 1004 519 1023 l 295 1131 m 919 625 l 1086 -10 l 703 -10 l 673 104 l 427 104 l 397 -10 l 14 -10 l 262 937 l 1152 937 l 1152 903 l 290 903 l 58 23 l 369 23 l 399 139 l 701 139 l 730 23 l 1042 23 l 875 660 l 1152 660 l 1152 625 l 919 625 m 450 324 l 550 709 l 649 324 l 450 324 m 148 1034 l 286 1170 l 706 1015 l 706 971 l 148 1034 z "},"á":{"ha":1099,"x_min":14,"x_max":1152,"o":"m 550 570 l 494 359 l 606 359 l 550 570 m 804 1131 l 503 1019 l 875 1059 l 804 1131 m 919 625 l 1086 -10 l 703 -10 l 673 104 l 427 104 l 397 -10 l 14 -10 l 262 937 l 1152 937 l 1152 903 l 290 903 l 58 23 l 369 23 l 399 139 l 701 139 l 730 23 l 1042 23 l 875 660 l 1152 660 l 1152 625 l 919 625 m 450 324 l 550 709 l 649 324 l 450 324 m 393 971 l 393 1015 l 814 1170 l 951 1034 l 393 971 z "},"â":{"ha":1099,"x_min":14,"x_max":1152,"o":"m 550 570 l 494 359 l 606 359 l 550 570 m 647 1135 l 452 1135 l 282 1007 l 393 1007 l 550 1125 l 707 1007 l 817 1007 l 647 1135 m 919 625 l 1086 -10 l 703 -10 l 673 104 l 427 104 l 397 -10 l 14 -10 l 262 937 l 1152 937 l 1152 903 l 290 903 l 58 23 l 369 23 l 399 139 l 701 139 l 730 23 l 1042 23 l 875 660 l 1152 660 l 1152 625 l 919 625 m 450 324 l 550 709 l 649 324 l 450 324 m 696 972 l 550 1081 l 404 972 l 178 972 l 441 1169 l 659 1169 l 922 972 l 696 972 z "},"ã":{"ha":1099,"x_min":14,"x_max":1152,"o":"m 550 570 l 494 359 l 606 359 l 550 570 m 758 1099 q 665 1068 713 1068 q 550 1096 627 1068 q 435 1124 474 1124 q 341 1091 385 1124 l 341 1031 q 435 1063 387 1063 q 549 1035 473 1063 q 662 1007 625 1007 q 758 1044 707 1007 l 758 1099 m 919 625 l 1086 -10 l 703 -10 l 673 104 l 427 104 l 397 -10 l 14 -10 l 262 937 l 1152 937 l 1152 903 l 290 903 l 58 23 l 369 23 l 399 139 l 701 139 l 730 23 l 1042 23 l 875 660 l 1152 660 l 1152 625 l 919 625 m 450 324 l 550 709 l 649 324 l 450 324 m 793 1025 q 662 972 722 972 q 549 1000 625 972 q 435 1028 473 1028 q 307 960 383 1028 l 307 1107 q 435 1158 366 1158 q 550 1131 474 1158 q 665 1103 627 1103 q 793 1171 716 1103 l 793 1025 z "},"ä":{"ha":1099,"x_min":14,"x_max":1152,"o":"m 550 570 l 494 359 l 606 359 l 550 570 m 469 1071 q 450 1115 469 1096 q 405 1135 430 1135 q 360 1115 380 1135 q 341 1071 341 1096 q 346 1046 341 1058 q 360 1026 351 1035 q 380 1012 369 1017 q 405 1007 392 1007 q 429 1012 418 1007 q 450 1026 441 1017 q 464 1046 458 1035 q 469 1071 469 1058 m 758 1071 q 739 1115 758 1096 q 694 1135 720 1135 q 650 1115 669 1135 q 631 1071 631 1096 q 636 1046 631 1058 q 650 1026 641 1035 q 670 1012 659 1017 q 694 1007 682 1007 q 719 1012 707 1007 q 739 1026 730 1017 q 753 1046 748 1035 q 758 1071 758 1058 m 919 625 l 1086 -10 l 703 -10 l 673 104 l 427 104 l 397 -10 l 14 -10 l 262 937 l 1152 937 l 1152 903 l 290 903 l 58 23 l 369 23 l 399 139 l 701 139 l 730 23 l 1042 23 l 875 660 l 1152 660 l 1152 625 l 919 625 m 450 324 l 550 709 l 649 324 l 450 324 m 503 1071 q 473 1002 503 1031 q 405 972 444 972 q 336 1002 365 972 q 307 1071 307 1031 q 336 1139 307 1110 q 405 1169 366 1169 q 473 1139 444 1169 q 503 1071 503 1109 m 793 1071 q 763 1002 793 1031 q 694 972 734 972 q 625 1002 654 972 q 596 1071 596 1031 q 625 1139 596 1110 q 694 1169 655 1169 q 763 1139 733 1169 q 793 1071 793 1109 z "},"å":{"ha":1099,"x_min":14,"x_max":1152,"o":"m 550 570 l 494 359 l 606 359 l 550 570 m 590 1071 q 578 1099 590 1087 q 550 1111 566 1111 q 522 1099 534 1111 q 509 1071 509 1087 q 550 1030 509 1030 q 578 1042 566 1030 q 590 1071 590 1055 m 919 625 l 1086 -10 l 703 -10 l 673 104 l 427 104 l 397 -10 l 14 -10 l 262 937 l 1152 937 l 1152 903 l 290 903 l 58 23 l 369 23 l 399 139 l 701 139 l 730 23 l 1042 23 l 875 660 l 1152 660 l 1152 625 l 919 625 m 450 324 l 550 709 l 649 324 l 450 324 m 637 1071 q 610 1010 637 1035 q 550 984 585 984 q 489 1010 515 984 q 463 1071 463 1036 q 489 1131 463 1105 q 550 1158 514 1158 q 610 1131 585 1158 q 637 1071 637 1105 z "},"æ":{"ha":1667,"x_min":9,"x_max":1718,"o":"m 701 570 l 576 336 l 701 336 l 701 570 m 519 301 l 735 709 l 735 301 l 519 301 m 1071 625 l 1071 596 l 1418 596 l 1418 330 l 1071 330 l 1071 301 l 1649 301 l 1649 -10 l 701 -10 l 701 104 l 455 104 l 395 -10 l 9 -10 l 503 937 l 1718 937 l 1718 903 l 524 903 l 67 23 l 374 23 l 434 139 l 735 139 l 735 23 l 1615 23 l 1615 267 l 1036 267 l 1036 365 l 1383 365 l 1383 562 l 1036 562 l 1036 660 l 1718 660 l 1718 625 l 1071 625 z "},"è":{"ha":984,"x_min":18,"x_max":1036,"o":"m 237 1131 l 167 1059 q 262 1048 203 1055 q 403 1030 321 1041 q 580 1004 462 1023 l 237 1131 m 388 625 l 388 596 l 735 596 l 735 330 l 388 330 l 388 301 l 966 301 l 966 -10 l 18 -10 l 18 937 l 1036 937 l 1036 903 l 52 903 l 52 23 l 932 23 l 932 267 l 353 267 l 353 365 l 701 365 l 701 562 l 353 562 l 353 660 l 1036 660 l 1036 625 l 388 625 m 90 1034 l 228 1170 l 648 1015 l 648 971 l 90 1034 z "},"é":{"ha":984,"x_min":18,"x_max":1036,"o":"m 747 1131 l 444 1019 l 817 1059 l 747 1131 m 388 625 l 388 596 l 735 596 l 735 330 l 388 330 l 388 301 l 966 301 l 966 -10 l 18 -10 l 18 937 l 1036 937 l 1036 903 l 52 903 l 52 23 l 932 23 l 932 267 l 353 267 l 353 365 l 701 365 l 701 562 l 353 562 l 353 660 l 1036 660 l 1036 625 l 388 625 m 336 971 l 336 1015 l 755 1170 l 894 1034 l 336 971 z "},"ê":{"ha":984,"x_min":18,"x_max":1036,"o":"m 589 1135 l 395 1135 l 224 1007 l 334 1007 l 492 1125 l 649 1007 l 760 1007 l 589 1135 m 388 625 l 388 596 l 735 596 l 735 330 l 388 330 l 388 301 l 966 301 l 966 -10 l 18 -10 l 18 937 l 1036 937 l 1036 903 l 52 903 l 52 23 l 932 23 l 932 267 l 353 267 l 353 365 l 701 365 l 701 562 l 353 562 l 353 660 l 1036 660 l 1036 625 l 388 625 m 637 972 l 492 1081 l 346 972 l 120 972 l 383 1169 l 601 1169 l 863 972 l 637 972 z "},"ë":{"ha":984,"x_min":18,"x_max":1036,"o":"m 411 1071 q 392 1115 411 1096 q 347 1135 372 1135 q 302 1115 322 1135 q 283 1071 283 1096 q 289 1046 283 1058 q 302 1026 294 1035 q 323 1012 311 1017 q 347 1007 334 1007 q 372 1012 360 1007 q 392 1026 383 1017 q 406 1046 401 1035 q 411 1071 411 1058 m 701 1071 q 681 1115 701 1095 q 637 1135 661 1135 q 592 1115 612 1135 q 573 1071 573 1096 q 578 1046 573 1058 q 592 1026 583 1035 q 612 1012 601 1017 q 637 1007 624 1007 q 681 1026 662 1007 q 701 1071 701 1046 m 388 625 l 388 596 l 735 596 l 735 330 l 388 330 l 388 301 l 966 301 l 966 -10 l 18 -10 l 18 937 l 1036 937 l 1036 903 l 52 903 l 52 23 l 932 23 l 932 267 l 353 267 l 353 365 l 701 365 l 701 562 l 353 562 l 353 660 l 1036 660 l 1036 625 l 388 625 m 446 1071 q 416 1002 446 1031 q 347 972 387 972 q 278 1002 307 972 q 249 1071 249 1031 q 278 1139 249 1110 q 347 1169 308 1169 q 416 1139 386 1169 q 446 1071 446 1109 m 735 1071 q 705 1002 735 1031 q 637 972 676 972 q 568 1002 597 972 q 538 1071 538 1031 q 568 1139 538 1110 q 637 1169 597 1169 q 705 1139 675 1169 q 735 1071 735 1109 z "},"ì":{"ha":405,"x_min":-198,"x_max":457,"o":"m -51 1131 l -121 1059 q -27 1048 -85 1055 q 113 1030 31 1041 q 290 1004 172 1023 l -51 1131 m 388 625 l 388 -10 l 18 -10 l 18 937 l 457 937 l 457 903 l 52 903 l 52 23 l 353 23 l 353 660 l 457 660 l 457 625 l 388 625 m -198 1034 l -60 1170 l 359 1015 l 359 971 l -198 1034 z "},"í":{"ha":405,"x_min":18,"x_max":604,"o":"m 457 1131 l 155 1019 l 528 1059 l 457 1131 m 388 625 l 388 -10 l 18 -10 l 18 937 l 457 937 l 457 903 l 52 903 l 52 23 l 353 23 l 353 660 l 457 660 l 457 625 l 388 625 m 46 971 l 46 1015 l 467 1170 l 604 1034 l 46 971 z "},"î":{"ha":405,"x_min":-168,"x_max":574,"o":"m 300 1135 l 105 1135 l -64 1007 l 45 1007 l 203 1125 l 360 1007 l 470 1007 l 300 1135 m 388 625 l 388 -10 l 18 -10 l 18 937 l 457 937 l 457 903 l 52 903 l 52 23 l 353 23 l 353 660 l 457 660 l 457 625 l 388 625 m 349 972 l 203 1081 l 57 972 l -168 972 l 94 1169 l 311 1169 l 574 972 l 349 972 z "},"ï":{"ha":405,"x_min":-39,"x_max":457,"o":"m 121 1071 q 102 1115 121 1096 q 58 1135 83 1135 q 34 1129 45 1135 q 14 1115 22 1124 q 0 1095 5 1106 q -5 1071 -5 1083 q 14 1026 -5 1045 q 58 1007 33 1007 q 82 1012 71 1007 q 102 1026 94 1017 q 116 1046 111 1035 q 121 1071 121 1058 m 411 1071 q 392 1115 411 1096 q 347 1135 372 1135 q 302 1115 322 1135 q 283 1071 283 1096 q 289 1046 283 1058 q 302 1026 294 1035 q 323 1012 311 1017 q 347 1007 334 1007 q 372 1012 360 1007 q 392 1026 383 1017 q 406 1046 401 1035 q 411 1071 411 1058 m 388 625 l 388 -10 l 18 -10 l 18 937 l 457 937 l 457 903 l 52 903 l 52 23 l 353 23 l 353 660 l 457 660 l 457 625 l 388 625 m 156 1071 q 126 1002 156 1031 q 58 972 97 972 q -10 1002 18 972 q -39 1071 -39 1031 q -10 1139 -39 1110 q 58 1169 18 1169 q 126 1139 96 1169 q 156 1071 156 1109 m 446 1071 q 416 1002 446 1031 q 347 972 387 972 q 278 1002 307 972 q 249 1071 249 1031 q 278 1139 249 1110 q 347 1169 308 1169 q 416 1139 386 1169 q 446 1071 446 1109 z "},"ñ":{"ha":1042,"x_min":18,"x_max":1094,"o":"m 729 1099 q 637 1068 684 1068 q 522 1096 597 1068 q 406 1124 446 1124 q 313 1091 355 1124 l 313 1031 q 406 1063 358 1063 q 519 1035 444 1063 q 633 1007 595 1007 q 729 1044 678 1007 l 729 1099 m 1024 625 l 1024 -10 l 660 -10 l 388 337 l 388 -10 l 18 -10 l 18 937 l 382 937 l 654 589 l 654 937 l 1094 937 l 1094 903 l 688 903 l 688 488 l 366 903 l 52 903 l 52 23 l 353 23 l 353 439 l 676 23 l 989 23 l 989 660 l 1094 660 l 1094 625 l 1024 625 m 764 1025 q 633 972 693 972 q 519 1000 595 972 q 406 1028 444 1028 q 278 960 355 1028 l 278 1107 q 406 1158 338 1158 q 522 1131 446 1158 q 637 1103 597 1103 q 764 1171 687 1103 l 764 1025 z "},"ò":{"ha":1042,"x_min":18,"x_max":1024,"o":"m 688 463 q 637 576 688 528 q 521 625 587 625 q 404 576 455 625 q 353 463 353 528 q 404 349 353 398 q 521 301 456 301 q 637 349 585 301 q 688 463 688 398 m 724 463 q 662 326 724 385 q 521 267 601 267 q 379 325 441 267 q 318 463 318 382 q 379 601 318 542 q 521 660 441 660 q 662 601 601 660 q 724 463 724 542 m 989 463 q 846 777 989 648 q 521 903 707 903 q 195 777 334 903 q 52 463 52 648 q 195 149 52 278 q 521 23 334 23 q 846 149 707 23 q 989 463 989 278 m 267 1131 l 195 1059 q 291 1048 232 1055 q 432 1030 350 1041 q 609 1004 491 1023 l 267 1131 m 1024 463 q 870 125 1024 265 q 521 -10 721 -10 q 172 125 321 -10 q 18 463 18 265 q 172 801 18 661 q 521 937 321 937 q 870 801 720 937 q 1024 463 1024 661 m 119 1034 l 257 1170 l 677 1015 l 677 971 l 119 1034 z "},"ó":{"ha":1042,"x_min":18,"x_max":1024,"o":"m 688 463 q 637 576 688 528 q 521 625 587 625 q 404 576 455 625 q 353 463 353 528 q 404 349 353 398 q 521 301 456 301 q 637 349 585 301 q 688 463 688 398 m 724 463 q 662 326 724 385 q 521 267 601 267 q 379 325 441 267 q 318 463 318 382 q 379 601 318 542 q 521 660 441 660 q 662 601 601 660 q 724 463 724 542 m 989 463 q 846 777 989 648 q 521 903 707 903 q 195 777 334 903 q 52 463 52 648 q 195 149 52 278 q 521 23 334 23 q 846 149 707 23 q 989 463 989 278 m 775 1131 l 473 1019 l 846 1059 l 775 1131 m 1024 463 q 870 125 1024 265 q 521 -10 721 -10 q 172 125 321 -10 q 18 463 18 265 q 172 801 18 661 q 521 937 321 937 q 870 801 720 937 q 1024 463 1024 661 m 365 971 l 365 1015 l 785 1170 l 922 1034 l 365 971 z "},"ô":{"ha":1042,"x_min":18,"x_max":1024,"o":"m 688 463 q 637 576 688 528 q 521 625 586 625 q 404 576 455 625 q 353 463 353 528 q 404 349 353 398 q 521 301 456 301 q 637 349 585 301 q 688 463 688 398 m 724 463 q 662 326 724 385 q 521 267 601 267 q 379 325 441 267 q 318 463 318 382 q 379 601 318 542 q 521 660 441 660 q 662 601 601 660 q 724 463 724 542 m 989 463 q 846 777 989 648 q 521 903 707 903 q 195 777 334 903 q 52 463 52 648 q 195 149 52 278 q 521 23 334 23 q 846 149 707 23 q 989 463 989 278 m 618 1135 l 424 1135 l 254 1007 l 363 1007 l 521 1125 l 678 1007 l 788 1007 l 618 1135 m 1024 463 q 870 125 1024 265 q 521 -10 721 -10 q 172 125 321 -10 q 18 463 18 265 q 172 801 18 661 q 521 937 321 937 q 870 801 720 937 q 1024 463 1024 661 m 667 972 l 521 1081 l 375 972 l 149 972 l 412 1169 l 629 1169 l 892 972 l 667 972 z "},"õ":{"ha":1042,"x_min":18,"x_max":1024,"o":"m 688 463 q 637 576 688 528 q 521 625 587 625 q 404 576 455 625 q 353 463 353 528 q 404 349 353 398 q 521 301 456 301 q 637 349 585 301 q 688 463 688 398 m 724 463 q 662 326 724 385 q 521 267 601 267 q 379 325 441 267 q 318 463 318 382 q 379 601 318 542 q 521 660 441 660 q 662 601 601 660 q 724 463 724 542 m 989 463 q 846 777 989 648 q 521 903 707 903 q 195 777 334 903 q 52 463 52 648 q 195 149 52 278 q 521 23 334 23 q 846 149 707 23 q 989 463 989 278 m 729 1099 q 637 1068 684 1068 q 522 1096 597 1068 q 406 1124 446 1124 q 313 1091 355 1124 l 313 1031 q 406 1063 358 1063 q 519 1035 444 1063 q 633 1007 595 1007 q 729 1044 678 1007 l 729 1099 m 1024 463 q 870 125 1024 265 q 521 -10 721 -10 q 172 125 321 -10 q 18 463 18 265 q 172 801 18 661 q 521 937 321 937 q 870 801 720 937 q 1024 463 1024 661 m 764 1025 q 633 972 693 972 q 519 1000 595 972 q 406 1028 444 1028 q 278 960 355 1028 l 278 1107 q 406 1158 338 1158 q 522 1131 446 1158 q 637 1103 597 1103 q 764 1171 687 1103 l 764 1025 z "},"ö":{"ha":1042,"x_min":18,"x_max":1024,"o":"m 688 463 q 637 576 688 528 q 521 625 587 625 q 404 576 455 625 q 353 463 353 528 q 404 349 353 398 q 521 301 456 301 q 637 349 585 301 q 688 463 688 398 m 724 463 q 662 326 724 385 q 521 267 601 267 q 379 325 441 267 q 318 463 318 382 q 379 601 318 542 q 521 660 441 660 q 662 601 601 660 q 724 463 724 542 m 989 463 q 846 777 989 648 q 521 903 707 903 q 195 777 334 903 q 52 463 52 648 q 195 149 52 278 q 521 23 334 23 q 846 149 707 23 q 989 463 989 278 m 440 1071 q 420 1115 440 1095 q 376 1135 401 1135 q 332 1115 351 1135 q 313 1071 313 1096 q 318 1046 313 1058 q 332 1026 323 1035 q 352 1012 340 1017 q 376 1007 363 1007 q 420 1026 401 1007 q 440 1071 440 1046 m 729 1071 q 710 1115 729 1096 q 665 1135 690 1135 q 621 1115 640 1135 q 602 1071 602 1096 q 607 1046 602 1058 q 621 1026 612 1035 q 641 1012 629 1017 q 665 1007 652 1007 q 690 1012 678 1007 q 710 1026 701 1017 q 724 1046 719 1035 q 729 1071 729 1058 m 1024 463 q 870 125 1024 265 q 521 -10 721 -10 q 172 125 321 -10 q 18 463 18 265 q 172 801 18 661 q 521 937 321 937 q 870 801 720 937 q 1024 463 1024 661 m 475 1071 q 445 1002 475 1031 q 376 972 416 972 q 307 1002 336 972 q 278 1071 278 1031 q 307 1139 278 1110 q 376 1169 337 1169 q 445 1139 415 1169 q 475 1071 475 1109 m 764 1071 q 734 1002 764 1031 q 665 972 705 972 q 596 1002 625 972 q 567 1071 567 1031 q 596 1139 567 1110 q 665 1169 626 1169 q 734 1139 704 1169 q 764 1071 764 1109 z "},"÷":{"ha":521,"x_min":18,"x_max":503,"o":"m 324 267 q 305 311 324 292 q 260 330 286 330 q 216 311 235 330 q 197 267 197 292 q 202 242 197 254 q 216 222 207 231 q 236 208 224 213 q 260 203 248 203 q 285 208 273 203 q 305 222 296 213 q 319 242 314 231 q 324 267 324 254 m 469 527 l 52 527 l 52 399 l 469 399 l 469 527 m 324 660 q 305 704 324 685 q 260 724 286 724 q 216 704 235 724 q 197 660 197 685 q 202 635 197 647 q 216 615 207 624 q 236 601 224 606 q 260 596 248 596 q 285 601 273 596 q 305 615 296 606 q 319 635 314 624 q 324 660 324 647 m 359 267 q 329 197 359 227 q 260 168 299 168 q 191 197 221 168 q 162 267 162 227 q 191 335 162 306 q 260 365 221 365 q 329 335 299 365 q 359 267 359 305 m 18 365 l 18 562 l 503 562 l 503 365 l 18 365 m 359 660 q 329 591 359 621 q 260 562 300 562 q 191 591 220 562 q 162 660 162 620 q 191 728 162 699 q 260 758 221 758 q 329 728 299 758 q 359 660 359 699 z "},"ø":{"ha":1042,"x_min":-46,"x_max":1089,"o":"m 543 624 q 532 625 537 625 q 521 625 526 625 q 404 576 455 625 q 353 463 353 528 q 354 450 353 456 q 357 437 355 444 l 543 624 m 688 463 q 687 475 688 469 q 685 488 686 481 l 499 302 q 505 301 502 301 q 510 301 507 301 l 521 301 q 637 349 585 301 q 688 463 688 398 m 339 372 q 318 463 318 428 q 379 601 318 542 q 521 660 441 660 q 611 644 557 660 l 339 372 m 724 463 q 662 326 724 385 q 521 267 601 267 q 431 282 487 267 l 703 554 q 724 463 724 495 m 950 983 l 789 822 q 521 903 658 903 q 195 777 334 903 q 52 463 52 648 q 156 189 52 317 l 1 33 l 92 -56 l 252 104 q 521 23 383 23 q 846 149 707 23 q 989 463 989 278 q 886 737 989 608 l 1040 892 l 950 983 m 932 735 q 1024 463 1024 610 q 870 125 1024 265 q 521 -10 721 -10 q 257 60 382 -10 l 92 -104 l -46 33 l 110 191 q 18 463 18 316 q 172 801 18 661 q 521 937 321 937 q 785 866 659 937 l 950 1031 l 1089 892 l 932 735 z "},"ù":{"ha":1042,"x_min":18,"x_max":1094,"o":"m 267 1131 l 195 1059 q 291 1048 232 1055 q 432 1030 350 1041 q 609 1004 491 1023 l 267 1131 m 1024 625 l 1024 463 q 870 125 1024 265 q 521 -10 721 -10 q 172 125 321 -10 q 18 463 18 265 l 18 937 l 353 937 l 353 463 q 404 349 353 398 q 521 301 456 301 q 637 349 585 301 q 688 463 688 398 l 688 937 l 1094 937 l 1094 903 l 724 903 l 724 463 q 662 326 724 385 q 521 267 601 267 q 379 325 441 267 q 318 463 318 382 l 318 903 l 52 903 l 52 463 q 195 149 52 278 q 521 23 334 23 q 846 149 707 23 q 989 463 989 278 l 989 660 l 1094 660 l 1094 625 l 1024 625 m 119 1034 l 257 1170 l 677 1015 l 677 971 l 119 1034 z "},"ú":{"ha":1042,"x_min":18,"x_max":1094,"o":"m 775 1131 l 473 1019 l 846 1059 l 775 1131 m 1024 625 l 1024 463 q 870 125 1024 265 q 521 -10 721 -10 q 172 125 321 -10 q 18 463 18 265 l 18 937 l 353 937 l 353 463 q 404 349 353 398 q 521 301 456 301 q 637 349 585 301 q 688 463 688 398 l 688 937 l 1094 937 l 1094 903 l 724 903 l 724 463 q 662 326 724 385 q 521 267 601 267 q 379 325 441 267 q 318 463 318 382 l 318 903 l 52 903 l 52 463 q 195 149 52 278 q 521 23 334 23 q 846 149 707 23 q 989 463 989 278 l 989 660 l 1094 660 l 1094 625 l 1024 625 m 365 971 l 365 1015 l 785 1170 l 922 1034 l 365 971 z "},"û":{"ha":1042,"x_min":18,"x_max":1094,"o":"m 618 1135 l 424 1135 l 254 1007 l 363 1007 l 521 1125 l 678 1007 l 788 1007 l 618 1135 m 1024 625 l 1024 463 q 870 125 1024 265 q 521 -10 721 -10 q 172 125 321 -10 q 18 463 18 265 l 18 937 l 353 937 l 353 463 q 404 349 353 398 q 521 301 456 301 q 637 349 585 301 q 688 463 688 398 l 688 937 l 1094 937 l 1094 903 l 724 903 l 724 463 q 662 326 724 385 q 521 267 601 267 q 379 325 441 267 q 318 463 318 382 l 318 903 l 52 903 l 52 463 q 195 149 52 278 q 521 23 334 23 q 846 149 707 23 q 989 463 989 278 l 989 660 l 1094 660 l 1094 625 l 1024 625 m 667 972 l 521 1081 l 375 972 l 149 972 l 412 1169 l 629 1169 l 892 972 l 667 972 z "},"ü":{"ha":1042,"x_min":18,"x_max":1094,"o":"m 440 1071 q 420 1115 440 1095 q 376 1135 401 1135 q 332 1115 351 1135 q 313 1071 313 1096 q 318 1046 313 1058 q 332 1026 323 1035 q 352 1012 340 1017 q 376 1007 363 1007 q 420 1026 401 1007 q 440 1071 440 1046 m 729 1071 q 710 1115 729 1096 q 665 1135 690 1135 q 621 1115 640 1135 q 602 1071 602 1096 q 607 1046 602 1058 q 621 1026 612 1035 q 641 1012 629 1017 q 665 1007 652 1007 q 690 1012 678 1007 q 710 1026 701 1017 q 724 1046 719 1035 q 729 1071 729 1058 m 1024 625 l 1024 463 q 870 125 1024 265 q 521 -10 721 -10 q 172 125 321 -10 q 18 463 18 265 l 18 937 l 353 937 l 353 463 q 404 349 353 398 q 521 301 456 301 q 637 349 585 301 q 688 463 688 398 l 688 937 l 1094 937 l 1094 903 l 724 903 l 724 463 q 662 326 724 385 q 521 267 601 267 q 379 325 441 267 q 318 463 318 382 l 318 903 l 52 903 l 52 463 q 195 149 52 278 q 521 23 334 23 q 846 149 707 23 q 989 463 989 278 l 989 660 l 1094 660 l 1094 625 l 1024 625 m 475 1071 q 445 1002 475 1031 q 376 972 416 972 q 307 1002 336 972 q 278 1071 278 1031 q 307 1139 278 1110 q 376 1169 337 1169 q 445 1139 415 1169 q 475 1071 475 1109 m 764 1071 q 734 1002 764 1031 q 665 972 705 972 q 596 1002 625 972 q 567 1071 567 1031 q 596 1139 567 1110 q 665 1169 626 1169 q 734 1139 704 1169 q 764 1071 764 1109 z "},"ý":{"ha":1146,"x_min":9,"x_max":1198,"o":"m 827 1131 l 526 1019 l 898 1059 l 827 1131 m 956 625 l 758 286 l 758 -10 l 388 -10 l 388 286 l 9 937 l 429 937 l 573 678 l 716 937 l 1198 937 l 1198 903 l 737 903 l 573 606 l 408 903 l 69 903 l 422 295 l 422 23 l 724 23 l 724 295 l 935 660 l 1198 660 l 1198 625 l 956 625 m 416 971 l 416 1015 l 837 1170 l 975 1034 l 416 971 z "},"ÿ":{"ha":1146,"x_min":9,"x_max":1198,"o":"m 492 1071 q 473 1115 492 1096 q 428 1135 453 1135 q 404 1129 416 1135 q 384 1115 393 1124 q 370 1095 375 1106 q 365 1071 365 1083 q 384 1026 365 1045 q 428 1007 403 1007 q 452 1012 441 1007 q 473 1026 464 1017 q 487 1046 481 1035 q 492 1071 492 1058 m 781 1071 q 762 1115 781 1096 q 718 1135 743 1135 q 673 1115 692 1135 q 654 1071 654 1096 q 659 1046 654 1058 q 673 1026 664 1035 q 693 1012 682 1017 q 718 1007 705 1007 q 742 1012 730 1007 q 762 1026 753 1017 q 776 1046 771 1035 q 781 1071 781 1058 m 956 625 l 758 286 l 758 -10 l 388 -10 l 388 286 l 9 937 l 429 937 l 573 678 l 716 937 l 1198 937 l 1198 903 l 737 903 l 573 606 l 408 903 l 69 903 l 422 295 l 422 23 l 724 23 l 724 295 l 935 660 l 1198 660 l 1198 625 l 956 625 m 527 1071 q 497 1002 527 1031 q 428 972 468 972 q 359 1002 388 972 q 330 1071 330 1031 q 359 1139 330 1110 q 428 1169 389 1169 q 497 1139 467 1169 q 527 1071 527 1109 m 816 1071 q 786 1002 816 1031 q 718 972 757 972 q 648 1002 677 972 q 619 1071 619 1031 q 648 1139 619 1110 q 718 1169 678 1169 q 786 1139 756 1169 q 816 1071 816 1109 z "},"‛":{"ha":290,"x_min":18,"x_max":272,"o":"m 237 810 q 210 875 237 847 q 144 903 182 903 q 80 875 108 903 q 52 810 52 847 q 142 621 52 696 l 113 718 l 136 718 q 206 744 176 718 q 237 810 237 771 m 272 810 q 239 728 272 763 q 160 685 207 693 l 197 562 q 67 654 120 572 q 18 810 18 728 q 56 899 18 861 q 144 937 94 937 q 233 899 195 937 q 272 810 272 861 z "}}}
